<?xml version="1.0" standalone="no"?>
<!DOCTYPE svg PUBLIC "-//W3C//DTD SVG 20010904//EN"
 "http://www.w3.org/TR/2001/REC-SVG-20010904/DTD/svg10.dtd">
<svg version="1.0" xmlns="http://www.w3.org/2000/svg"
 width="548.000000pt" height="548.000000pt" viewBox="0 0 548.000000 548.000000"
 preserveAspectRatio="xMidYMid meet">
<metadata>
Created by potrace 1.14, written by Peter Selinger 2001-2017
</metadata>
<g transform="translate(0.000000,548.000000) scale(0.100000,-0.100000)"
fill="#000000" stroke="none">
<path d="M295 3598 c-16 -6 -44 -21 -61 -34 -17 -13 -34 -21 -38 -19 -3 3 -4
2 -1 -2 2 -3 -7 -16 -20 -29 -27 -24 -33 -40 -12 -28 9 5 9 3 -1 -7 -11 -12
-14 -12 -22 1 -8 12 -10 10 -10 -8 0 -13 4 -21 8 -18 4 2 8 -4 8 -15 0 -26 -3
-24 -25 19 -17 31 -20 33 -18 12 1 -18 -2 -24 -13 -22 -12 3 -13 1 -3 -9 15
-15 17 -33 4 -24 -5 3 -12 1 -16 -5 -4 -6 -12 -7 -18 -3 -7 4 -6 0 2 -10 13
-16 36 -14 26 3 -3 4 6 3 20 -3 20 -10 22 -13 7 -18 -9 -4 -20 -5 -24 -2 -5 2
-8 -1 -8 -7 0 -6 7 -13 15 -17 13 -5 13 -8 -5 -20 -11 -8 -20 -25 -20 -39 0
-13 -5 -23 -11 -22 -6 2 -14 -4 -16 -12 -4 -13 -3 -13 6 0 6 8 11 11 12 5 1
-5 2 -14 4 -20 1 -5 3 -15 3 -21 1 -6 12 -16 24 -22 13 -6 18 -11 11 -11 -6
-1 -25 10 -41 23 -19 17 -29 21 -29 11 0 -8 5 -13 10 -12 5 1 12 -4 15 -12 2
-8 0 -11 -6 -7 -6 3 -14 2 -17 -4 -4 -6 -1 -9 7 -8 8 2 12 -4 10 -14 -2 -10 2
-18 8 -18 6 0 8 5 4 12 -4 7 -3 8 4 4 7 -4 12 -3 12 3 0 5 -6 12 -12 14 -10 4
-10 6 -1 6 18 1 27 -19 14 -32 -14 -14 -14 -47 0 -47 5 0 8 4 5 9 -7 11 21 9
29 -2 3 -4 2 -5 -2 -2 -10 8 -33 -16 -26 -28 3 -6 1 -7 -5 -3 -7 4 -12 2 -12
-5 0 -10 -3 -10 -12 -1 -7 7 -16 12 -22 12 -5 0 -6 -3 -3 -7 4 -3 1 -13 -5
-22 -10 -13 -10 -14 2 -3 8 6 18 12 23 12 4 0 5 -6 1 -12 -6 -10 -4 -10 7 0
16 15 29 16 29 1 0 -5 -4 -7 -10 -4 -5 3 -10 -1 -10 -10 0 -9 -4 -14 -9 -10
-5 3 -12 1 -15 -4 -4 -5 -1 -13 4 -16 8 -5 6 -13 -6 -26 -9 -10 -14 -19 -9
-19 4 0 14 8 22 18 13 16 14 15 10 -5 -3 -13 0 -26 5 -30 7 -4 8 -1 3 8 -7 12
-5 12 6 1 11 -11 12 -14 1 -21 -19 -11 -17 -24 5 -32 17 -7 17 -8 0 -8 -11 -1
-15 -6 -11 -13 4 -7 3 -8 -5 -4 -6 4 -8 12 -5 18 4 7 2 8 -4 4 -9 -5 -9 -13
-2 -27 6 -11 7 -27 3 -36 -5 -10 -8 -31 -7 -46 1 -17 -3 -26 -10 -24 -7 3 -12
-4 -12 -14 0 -14 3 -15 14 -7 10 9 14 7 18 -10 4 -13 12 -19 25 -17 10 2 21 0
23 -4 3 -4 -6 -7 -20 -7 -14 1 -29 8 -34 16 -7 11 -10 12 -10 2 0 -8 -5 -10
-12 -6 -7 4 -10 4 -6 -1 4 -4 3 -14 -4 -22 -8 -11 -7 -12 6 -7 9 3 16 10 16
16 0 5 5 6 11 2 8 -4 8 -9 0 -17 -14 -14 -14 -27 -1 -27 5 0 9 5 7 11 -1 6 4
14 11 16 14 6 16 -13 2 -22 -13 -8 -13 -45 1 -45 5 0 8 4 5 9 -7 11 21 9 29
-2 3 -4 2 -5 -2 -2 -10 8 -33 -16 -26 -28 3 -6 1 -7 -5 -3 -7 4 -12 2 -12 -5
0 -8 -4 -8 -15 1 -9 7 -18 10 -22 6 -3 -3 0 -6 7 -6 7 0 10 -3 7 -7 -4 -3 -2
-12 4 -19 7 -8 7 -14 0 -19 -7 -4 -5 -14 5 -30 9 -13 13 -29 10 -34 -4 -5 -1
-13 5 -17 8 -5 9 -3 4 7 -6 11 -5 12 5 2 20 -18 6 -27 -20 -13 l-22 12 18 -25
c11 -15 26 -28 34 -30 11 -4 10 -5 -3 -6 -11 -1 -15 -6 -11 -13 4 -7 3 -8 -5
-4 -6 4 -8 12 -5 18 4 7 2 8 -4 4 -9 -5 -9 -13 -2 -27 6 -11 7 -27 3 -36 -5
-10 -8 -31 -7 -46 1 -17 -3 -26 -10 -24 -7 3 -12 -4 -12 -14 0 -14 3 -15 14
-7 10 9 14 7 18 -10 4 -13 12 -19 25 -17 10 2 21 0 23 -4 3 -4 -6 -7 -20 -7
-14 1 -29 8 -34 16 -7 11 -10 12 -10 2 0 -8 -5 -10 -12 -6 -7 4 -10 4 -6 -1 4
-4 3 -14 -4 -22 -8 -11 -7 -12 6 -7 9 3 16 10 16 16 0 5 5 6 11 2 8 -4 8 -9 0
-17 -14 -14 -14 -27 -1 -27 5 0 9 5 7 11 -1 6 4 14 11 16 14 6 16 -13 2 -22
-13 -8 -13 -45 1 -45 5 0 8 4 5 9 -7 11 21 9 29 -2 3 -4 2 -5 -2 -2 -3 3 -12
0 -19 -6 -10 -8 -11 -16 -3 -31 7 -13 7 -18 1 -14 -6 3 -13 2 -16 -3 -3 -5 1
-11 9 -15 8 -3 15 -11 14 -18 0 -10 -2 -10 -6 0 -2 6 -9 12 -14 12 -13 0 -7
-23 10 -36 11 -9 11 -11 -3 -11 -17 0 -18 2 -20 45 -2 32 -13 52 -29 52 -7 0
-6 -4 3 -10 8 -5 11 -10 6 -10 -5 0 -3 -6 3 -14 8 -9 8 -16 2 -20 -15 -10 21
-67 40 -63 9 2 16 -1 16 -8 0 -7 -10 -10 -24 -7 -12 2 -23 9 -23 16 0 6 -4 4
-10 -4 -5 -9 -5 -19 0 -25 6 -7 5 -17 -3 -25 -10 -12 -9 -12 5 -1 10 7 16 17
13 20 -2 4 2 8 10 8 8 0 13 -5 12 -11 -1 -5 3 -10 10 -11 6 0 15 -4 20 -9 4
-5 3 -6 -4 -2 -6 3 -14 2 -18 -4 -3 -5 -12 -10 -18 -10 -8 0 -8 3 2 9 7 5 9
11 4 14 -5 3 -14 -3 -21 -13 -7 -12 -8 -21 -2 -25 6 -4 7 -12 3 -18 -13 -21
-12 -36 3 -30 9 3 12 -2 9 -16 -2 -11 1 -24 7 -27 6 -4 8 -2 4 4 -3 6 -2 13 3
16 17 11 5 41 -15 38 -18 -4 -18 -3 1 16 11 11 22 18 24 16 9 -8 8 -89 -1
-101 -7 -9 -4 -11 11 -8 11 2 27 -3 35 -11 19 -18 32 -18 17 0 -9 11 -8 15 4
20 9 3 14 2 12 -2 -2 -4 7 -17 20 -29 13 -12 23 -18 23 -13 0 5 8 6 17 3 15
-6 16 -5 3 9 -9 10 -17 12 -21 6 -4 -7 -9 -6 -13 1 -4 6 -4 11 1 12 4 0 16 2
26 4 10 2 21 -3 23 -10 4 -10 10 -9 25 6 21 21 25 39 8 39 -5 0 -7 -5 -3 -12
4 -7 3 -8 -5 -4 -16 10 -4 26 17 23 29 -4 41 -17 36 -35 -5 -14 -4 -14 4 -2 8
10 8 18 1 27 -15 17 -1 36 22 30 11 -3 17 -2 14 3 -3 4 3 14 12 21 38 32 42
67 43 373 1 177 5 294 11 290 5 -3 9 1 9 8 1 7 8 1 16 -14 18 -33 20 -34 20
-8 0 11 -4 20 -8 20 -4 0 -8 5 -8 10 0 6 8 5 20 -2 11 -7 20 -16 20 -21 0 -4
-4 -5 -10 -2 -6 3 -7 -1 -3 -10 5 -13 7 -14 14 -3 7 10 9 10 9 -2 1 -8 9 0 19
19 15 27 19 30 24 16 10 -24 8 -37 -3 -30 -5 3 -10 2 -10 -3 0 -6 11 -9 24 -8
13 0 22 4 20 8 -2 3 -1 8 3 11 5 2 2 2 -5 1 -6 -2 -12 1 -12 7 0 7 10 9 27 4
24 -6 25 -5 12 12 -13 17 -13 17 5 3 10 -8 24 -15 30 -16 6 0 19 -2 29 -2 10
-1 15 -6 12 -12 -3 -5 -1 -10 4 -10 6 0 11 7 11 15 0 8 -5 15 -12 15 -6 0 -9
2 -6 5 7 8 39 -6 34 -14 -3 -4 5 -8 17 -8 17 -2 19 0 7 7 -12 8 -12 10 4 10
19 0 19 0 0 23 l-19 22 25 -22 c27 -23 51 -18 78 15 7 10 12 11 12 4 0 -7 0
-15 0 -19 0 -5 -4 -9 -10 -9 -5 -1 -15 -2 -21 -3 -5 0 -7 -6 -3 -12 4 -8 9 -7
15 2 5 8 9 10 9 6 0 -5 10 -1 21 7 12 8 28 12 36 9 10 -4 13 1 9 21 -3 15 -1
24 4 21 5 -3 11 -1 15 5 3 6 17 8 31 6 16 -3 27 0 30 9 3 8 13 11 22 8 15 -4
15 -3 2 6 -11 8 -18 7 -25 -3 -5 -7 -16 -11 -24 -8 -8 3 3 12 28 24 22 10 41
24 41 30 0 7 4 7 14 -1 11 -9 14 -8 12 6 -1 13 5 17 19 15 14 -2 16 0 7 6 -9
6 -7 13 8 30 12 12 25 22 31 22 6 0 8 4 4 9 -3 5 0 16 7 23 19 20 38 56 38 70
0 7 9 19 20 26 15 9 20 9 20 0 0 -6 3 -8 6 -5 4 4 2 13 -4 20 -7 8 -8 18 -4
22 4 5 1 5 -6 1 -7 -4 -10 -11 -7 -16 3 -5 1 -11 -5 -15 -11 -7 -14 18 -3 29
4 4 8 19 8 34 0 15 4 33 8 40 5 7 3 12 -4 12 -7 0 -8 5 -3 13 11 15 11 38 1
55 -5 7 -3 12 3 12 6 0 8 5 4 12 -5 7 -8 24 -8 38 0 18 5 24 18 22 11 -2 15 1
11 7 -3 6 -12 11 -18 11 -7 0 -13 15 -14 33 -7 133 -120 279 -263 338 -52 22
-69 23 -330 25 -171 2 -286 -2 -305 -8z m-178 -155 c-4 -3 -2 -12 4 -19 7 -8
6 -14 -2 -20 -7 -4 -9 -3 -5 4 3 6 2 13 -4 17 -10 6 -5 25 7 25 4 0 3 -3 0 -7z
m-23 -160 c3 -12 -1 -20 -10 -20 -9 0 -11 4 -5 10 5 5 7 17 4 26 -4 9 -3 13 1
10 4 -4 8 -15 10 -26z m393 -18 c0 -8 -5 -11 -10 -8 -6 3 -7 1 -3 -5 4 -6 13
-9 21 -6 8 4 13 9 11 13 -3 4 8 7 24 6 15 0 26 -3 24 -6 -2 -4 3 -10 12 -13 8
-3 13 -2 10 2 -3 4 3 13 13 19 14 9 18 8 18 -3 0 -7 -3 -11 -7 -9 -4 2 -7 -2
-7 -10 0 -18 14 -20 19 -4 3 9 10 9 26 0 13 -7 19 -17 16 -23 -5 -7 -2 -8 6
-3 10 6 6 14 -16 32 l-29 25 33 -16 c17 -9 32 -13 32 -9 0 4 5 2 12 -5 15 -15
28 -15 28 -1 0 5 -4 8 -9 4 -6 -3 -15 4 -21 15 -11 20 -10 21 10 10 12 -6 24
-18 27 -26 3 -8 9 -14 15 -14 5 0 6 5 3 10 -10 17 7 11 22 -7 12 -15 14 -15
10 -2 -3 9 1 16 9 16 7 0 11 -4 8 -9 -4 -5 2 -16 12 -23 11 -8 15 -15 11 -15
-4 0 -2 -6 5 -14 7 -8 18 -11 23 -8 6 3 4 -1 -2 -10 -15 -18 -5 -32 12 -18 8
7 12 5 12 -5 0 -7 -5 -13 -11 -12 -6 1 -11 -10 -11 -25 0 -14 -3 -29 -7 -32
-5 -3 -6 -3 -3 0 2 4 0 16 -6 27 -6 10 -7 17 -2 14 5 -4 10 1 10 9 0 13 -2 13
-15 0 -13 -12 -13 -18 -2 -30 13 -16 2 -22 -16 -8 -5 4 2 -4 16 -17 14 -13 19
-20 11 -16 -9 5 -12 4 -8 -2 8 -13 -17 -36 -27 -26 -4 4 -4 0 -1 -10 6 -15 9
-15 24 4 11 14 22 18 34 13 15 -5 16 -9 5 -15 -7 -5 -13 -14 -13 -21 0 -8 -11
-13 -27 -12 -15 1 -26 -2 -23 -6 2 -4 17 -6 33 -5 17 1 29 -3 29 -11 0 -7 -7
-10 -16 -6 -14 5 -14 4 -1 -14 14 -18 14 -18 -2 -5 -10 7 -15 18 -11 24 3 6 1
7 -5 3 -8 -5 -9 -13 -3 -25 7 -12 6 -19 -2 -21 -7 -1 -96 -4 -199 -7 l-188 -4
0 156 c0 102 3 154 10 150 6 -3 10 -1 10 4 0 6 -4 11 -8 11 -5 0 -9 7 -9 15 0
8 3 12 7 10 4 -2 16 2 26 10 10 8 19 15 20 15 0 0 1 -7 1 -15z m-400 -30 c0
-8 -4 -12 -9 -9 -10 7 -10 24 0 24 5 0 9 -7 9 -15z m777 -181 c3 -8 2 -12 -4
-9 -6 3 -10 10 -10 16 0 14 7 11 14 -7z m-767 -43 c15 -23 -11 -25 -32 -1 -13
14 -12 16 3 17 10 1 23 -6 29 -16z m-10 -155 c-3 -7 -1 -18 4 -23 5 -5 0 -9
-13 -10 -16 -2 -19 0 -10 6 8 5 13 11 13 15 -2 16 0 26 5 26 3 0 4 -6 1 -14z
m9 -64 c1 -7 0 -8 -3 -2 -3 8 -9 7 -19 -1 -12 -10 -13 -9 -8 5 7 18 26 17 30
-2z m-9 -37 c0 -11 -4 -12 -14 -4 -7 6 -13 13 -13 15 0 2 6 4 13 4 8 0 14 -7
14 -15z m33 -69 c0 -2 -8 -10 -17 -17 -16 -13 -17 -12 -4 4 13 16 21 21 21 13z
m773 -69 c3 -8 0 -14 -7 -14 -7 0 -13 6 -13 14 0 7 4 13 8 13 4 0 9 -6 12 -13z
m-803 -36 c0 -4 -5 -12 -12 -19 -9 -9 -9 -12 1 -12 8 0 11 -6 7 -16 -5 -12 -2
-15 11 -10 14 6 15 5 6 -5 -17 -17 -58 18 -43 36 6 7 6 15 0 21 -6 6 -3 10 10
11 11 1 20 -2 20 -6z m-3 -205 c-3 -7 -1 -18 4 -23 5 -5 0 -9 -13 -10 -16 -2
-19 0 -10 6 8 5 13 11 13 15 -2 16 0 26 5 26 3 0 4 -6 1 -14z m9 -64 c1 -7 0
-8 -3 -2 -3 8 -9 7 -19 -1 -12 -10 -13 -9 -8 5 7 18 26 17 30 -2z m-9 -37 c0
-11 -4 -12 -14 -4 -17 14 -17 19 0 19 8 0 14 -7 14 -15z m33 -69 c0 -2 -8 -10
-17 -17 -16 -13 -17 -12 -4 4 13 16 21 21 21 13z m30 -346 c0 -5 -2 -10 -4
-10 -3 0 -8 5 -11 10 -3 6 -1 10 4 10 6 0 11 -4 11 -10z m-20 -21 c0 -5 6 -7
13 -3 6 4 8 3 4 -1 -13 -15 -34 -14 -34 1 0 8 4 14 9 14 4 0 8 -5 8 -11z"/>
<path d="M512 3247 c-9 -10 -6 -13 13 -13 19 0 22 3 13 13 -6 7 -12 13 -13 13
-1 0 -7 -6 -13 -13z"/>
<path d="M475 3221 c-3 -5 -2 -12 3 -15 5 -3 9 1 9 9 0 17 -3 19 -12 6z"/>
<path d="M748 3213 c6 -3 9 -9 6 -15 -4 -6 2 -5 15 1 19 11 32 -1 14 -12 -5
-2 -3 -3 4 -1 20 5 23 -9 5 -23 -16 -12 -16 -13 1 -7 11 4 16 2 14 -7 -2 -8
-2 -11 0 -6 3 4 8 5 13 2 12 -7 6 21 -8 37 -6 8 -9 18 -5 21 3 4 2 7 -3 8 -5
0 -22 2 -39 4 -16 1 -24 1 -17 -2z"/>
<path d="M831 3016 c-9 -11 -9 -16 1 -22 7 -4 10 -4 6 1 -4 4 -3 14 3 22 6 7
9 13 6 13 -2 0 -10 -6 -16 -14z"/>
<path d="M1445 3598 c-16 -6 -45 -21 -63 -35 -17 -13 -37 -21 -42 -18 -5 3 -7
0 -4 -8 3 -8 0 -18 -6 -22 -6 -4 -15 -18 -21 -32 -5 -13 -13 -22 -18 -19 -16
10 -41 -5 -41 -26 0 -10 5 -16 10 -13 6 4 8 10 5 15 -8 13 9 20 25 9 11 -6 12
-9 2 -9 -8 0 -10 -5 -6 -12 4 -7 4 -10 -1 -6 -4 4 -14 3 -21 -2 -6 -6 -16 -10
-20 -9 -23 4 -33 -3 -31 -21 1 -11 5 -20 10 -20 4 0 5 -5 2 -10 -4 -6 -10 -8
-15 -5 -4 3 -6 -9 -3 -26 3 -21 1 -29 -6 -24 -6 3 -11 1 -11 -5 0 -7 7 -10 15
-6 8 3 15 0 15 -5 0 -6 9 -9 20 -6 11 3 22 2 25 -3 2 -4 -10 -7 -28 -7 -17 1
-31 -3 -30 -9 7 -43 22 -65 38 -56 6 3 7 2 3 -3 -4 -4 -2 -15 5 -24 10 -14 10
-14 -4 -3 -13 10 -19 9 -29 -3 -10 -12 -8 -17 11 -25 22 -10 22 -10 -6 -5 -27
5 -28 4 -12 -8 9 -8 17 -20 17 -26 0 -7 4 -10 9 -7 5 4 8 -2 6 -11 -1 -10 3
-24 9 -32 9 -12 8 -12 -12 0 -12 8 -20 19 -18 25 2 6 1 17 -4 24 -4 7 -7 -6
-6 -31 1 -24 -3 -50 -8 -58 -8 -11 -8 -13 2 -7 6 4 12 3 12 -3 0 -5 -5 -13
-10 -16 -14 -9 6 -35 23 -31 7 1 8 1 4 -2 -4 -2 0 -11 10 -19 17 -13 16 -13
-4 -4 -30 15 -38 14 -24 -3 6 -7 8 -22 4 -31 -4 -11 -2 -16 4 -12 5 3 10 0 10
-7 0 -15 -21 -15 -34 -1 -4 4 -2 5 6 0 9 -5 12 -4 7 3 -10 17 -29 15 -23 -2 3
-7 0 -20 -6 -27 -8 -8 -5 -8 7 1 18 14 19 13 12 -5 -13 -30 -15 -66 -5 -59 5
3 9 0 9 -5 0 -6 -5 -11 -12 -11 -6 0 -8 -3 -5 -6 4 -4 13 -1 22 6 18 15 19 7
4 -22 -10 -18 -8 -19 13 -14 12 3 17 3 11 0 -7 -3 -13 -10 -13 -15 0 -6 6 -7
13 -3 6 4 9 4 5 -1 -4 -4 -2 -15 4 -24 10 -13 10 -14 -2 -4 -14 13 -40 1 -40
-19 0 -6 6 -6 14 1 10 8 16 9 21 1 4 -6 1 -9 -6 -8 -6 2 -14 -3 -17 -11 -2 -8
-1 -11 4 -8 5 3 9 -5 9 -18 0 -13 -3 -21 -7 -18 -5 2 -8 0 -8 -5 0 -6 7 -13
16 -16 13 -5 13 -9 -3 -30 -10 -13 -21 -22 -25 -20 -4 2 -5 -10 -3 -27 4 -25
2 -29 -9 -19 -11 8 -16 8 -22 -2 -4 -7 -3 -10 1 -5 5 4 17 -1 28 -10 11 -10
17 -13 14 -7 -4 7 -1 16 6 22 9 8 12 4 12 -13 0 -13 -3 -21 -6 -19 -3 1 -6
-10 -6 -26 0 -16 3 -27 6 -26 3 2 6 -15 6 -37 -1 -43 -20 -91 -33 -83 -4 2 -8
-4 -8 -14 0 -10 5 -16 10 -13 5 4 6 -1 2 -12 -6 -18 -6 -18 11 -3 17 15 18 15
18 -6 0 -18 -5 -22 -28 -21 -15 1 -30 -2 -32 -6 -3 -4 6 -6 20 -4 14 1 28 -2
31 -7 3 -4 10 -6 15 -3 5 4 9 1 9 -5 0 -7 -7 -10 -15 -6 -16 6 -21 -9 -6 -18
20 -13 -3 -78 -25 -69 -8 3 -14 0 -14 -7 0 -6 5 -8 10 -5 6 3 10 1 10 -4 0 -6
-5 -11 -12 -11 -6 0 -9 -3 -6 -6 3 -3 15 0 27 8 16 9 23 10 32 1 9 -9 7 -11
-7 -7 -24 6 -49 -30 -36 -52 5 -9 12 -15 15 -15 4 1 6 -2 5 -6 -2 -5 -12 -7
-23 -5 -15 1 -16 0 -6 -7 11 -7 11 -9 0 -14 -8 -3 -2 -4 13 -2 30 4 48 -12 28
-25 -7 -4 -9 -14 -6 -21 4 -8 1 -5 -8 5 -8 10 -13 23 -10 27 3 5 -2 6 -11 2
-12 -4 -13 -8 -5 -13 7 -5 9 -13 5 -20 -6 -9 -4 -11 5 -5 8 5 11 3 8 -6 -3 -8
-11 -13 -17 -11 -6 1 -11 -3 -11 -9 0 -6 7 -8 15 -5 8 3 23 9 33 12 16 6 16 6
0 -7 -20 -16 -18 -46 3 -59 8 -5 14 -15 14 -22 0 -7 5 -13 10 -13 6 0 16 -4
22 -8 9 -6 11 -3 7 8 -4 9 -13 14 -21 11 -8 -3 -11 -1 -8 4 8 14 35 13 35 -1
0 -6 7 -8 16 -5 14 5 15 4 5 -8 -9 -11 -8 -15 4 -20 10 -3 25 4 41 21 26 28
31 24 12 -10 -10 -19 -9 -20 4 -10 8 7 18 10 22 6 4 -4 4 0 1 9 -4 9 -1 19 6
24 8 4 10 3 5 -4 -4 -7 -2 -12 4 -12 6 0 9 -4 6 -8 -3 -5 1 -9 9 -9 8 0 11 5
7 11 -11 18 -12 46 -2 47 19 3 25 5 47 17 12 7 28 11 35 10 6 -2 13 2 13 7 1
6 11 26 23 45 l22 35 1 628 c1 345 2 637 3 649 1 22 26 39 26 18 0 -6 -4 -8
-10 -5 -6 3 -7 -1 -3 -10 5 -13 7 -14 14 -3 7 10 9 10 9 -2 0 -12 2 -12 9 -1
7 11 14 10 37 -5 15 -11 25 -14 21 -7 -4 6 -3 14 3 18 5 3 10 0 10 -7 0 -10 2
-10 9 0 4 8 12 14 16 14 4 0 12 -6 17 -14 6 -9 8 -5 4 12 -3 14 -3 19 0 13 3
-7 10 -13 15 -13 6 0 8 4 5 9 -7 10 20 9 30 -2 12 -12 26 -8 18 6 -6 9 -5 9 8
0 8 -7 18 -10 22 -6 4 4 4 -1 0 -11 -5 -12 -9 -14 -14 -6 -5 8 -9 7 -13 -3 -4
-11 0 -15 14 -12 21 4 27 -11 7 -18 -10 -3 -10 -8 1 -18 8 -8 11 -9 7 -2 -3 6
-1 15 5 18 5 4 8 13 5 21 -3 7 -1 16 4 19 5 3 7 -13 6 -35 -3 -40 14 -53 20
-16 4 27 20 40 29 25 5 -7 4 -10 -2 -6 -6 4 -13 0 -17 -8 -3 -8 0 -15 6 -15 7
0 7 -4 -1 -13 -6 -8 -7 -18 -3 -22 4 -5 -2 -5 -13 -1 -16 6 -18 5 -7 -6 11
-11 17 -9 33 12 12 14 18 19 14 11 -4 -7 -2 -17 6 -21 7 -5 14 -16 15 -24 1
-9 -2 -14 -7 -10 -5 3 -7 9 -4 14 3 4 -2 10 -10 14 -18 7 -20 -15 -2 -33 10
-10 9 -11 -5 -6 -12 5 -21 -2 -33 -24 -11 -23 -12 -31 -3 -29 7 2 12 -3 10 -9
-1 -7 3 -13 9 -13 6 0 8 7 5 16 -4 10 -2 13 6 8 6 -4 8 -3 5 3 -3 5 0 10 8 10
18 0 20 -13 3 -21 -10 -5 -10 -7 0 -12 6 -3 12 -10 12 -15 0 -6 -4 -7 -10 -4
-5 3 -10 1 -10 -5 0 -6 7 -13 15 -16 12 -5 10 -10 -10 -26 -14 -11 -23 -24
-20 -29 4 -5 0 -9 -7 -9 -8 0 -9 -3 -3 -8 15 -11 19 -46 4 -36 -8 5 -9 3 -3
-7 13 -21 14 -39 1 -39 -8 0 -7 -3 1 -9 8 -4 14 -12 14 -16 0 -4 -6 -12 -14
-16 -10 -7 -10 -9 2 -9 13 0 13 -1 0 -11 -12 -8 -10 -9 8 -4 13 4 22 2 22 -4
0 -10 -12 -15 -31 -13 -3 1 -6 -4 -6 -11 0 -7 -2 -19 -4 -27 -2 -8 3 -16 11
-16 8 -1 22 -2 30 -3 9 -1 11 -4 5 -9 -12 -8 -15 -82 -3 -82 4 0 8 -4 8 -8 0
-5 -7 -9 -15 -9 -8 0 -12 4 -9 9 3 4 1 8 -5 8 -5 0 -13 -4 -16 -10 -3 -5 -2
-10 3 -10 5 0 9 -7 9 -15 0 -10 -6 -14 -16 -10 -12 4 -12 2 2 -9 14 -11 15
-15 5 -20 -7 -3 -3 -3 10 0 12 3 22 1 22 -5 0 -10 -14 -15 -32 -12 -21 3 -5
-19 17 -25 25 -6 36 -23 13 -20 -7 0 -14 -3 -15 -8 -1 -5 -7 -12 -14 -17 -8
-4 -10 -11 -6 -16 9 -9 28 17 21 29 -3 4 2 5 11 1 13 -5 14 -7 3 -14 -7 -5 -8
-9 -3 -9 6 0 -1 -7 -15 -16 -23 -14 -23 -14 -2 -9 13 4 22 2 22 -4 0 -10 -14
-15 -32 -12 -21 3 -5 -19 17 -25 28 -7 34 -22 8 -20 -10 0 -17 -5 -16 -11 2
-7 -3 -13 -10 -13 -8 0 -7 -4 3 -10 8 -5 12 -10 8 -10 -4 0 -3 -11 2 -25 8
-20 7 -23 -8 -19 -10 4 -13 2 -7 -3 15 -12 17 -33 2 -33 -6 -1 -1 -7 13 -14
13 -8 32 -12 42 -11 10 2 16 0 13 -6 -4 -5 -11 -7 -16 -4 -5 4 -9 1 -9 -5 0
-7 -7 -4 -16 5 -9 9 -19 13 -22 10 -4 -3 -2 -9 4 -13 6 -4 16 -17 23 -29 10
-19 9 -22 -3 -17 -9 3 -14 11 -13 16 1 6 -5 13 -13 15 -9 3 -11 1 -5 -4 17
-14 17 -36 1 -30 -9 4 -18 1 -22 -5 -4 -6 -3 -8 2 -5 6 3 16 1 24 -4 13 -8 13
-10 0 -19 -10 -6 -11 -10 -3 -10 15 0 13 -21 -2 -32 -6 -5 -5 -8 2 -8 7 0 10
-7 7 -15 -4 -8 -1 -15 6 -15 6 0 8 5 5 10 -3 6 -2 10 3 10 6 0 13 -7 16 -16 3
-8 2 -12 -4 -9 -13 8 -13 -1 0 -25 8 -16 8 -18 -4 -14 -9 3 -14 11 -13 16 1 6
-5 13 -13 15 -9 3 -11 1 -5 -4 17 -14 17 -36 1 -30 -9 4 -18 2 -21 -4 -4 -5
-3 -9 2 -8 18 3 33 -2 33 -11 0 -5 -6 -8 -12 -6 -7 1 -10 1 -5 -1 4 -3 4 -10
0 -16 -4 -7 1 -6 11 2 9 8 15 20 12 28 -8 21 2 15 15 -8 8 -15 8 -19 0 -15 -7
5 -10 0 -8 -11 4 -29 18 -45 34 -39 9 4 11 2 6 -7 -8 -13 -15 -82 -7 -74 3 2
7 15 9 27 2 12 7 25 11 29 4 3 4 -2 1 -12 -5 -13 0 -20 18 -27 14 -5 25 -11
25 -14 0 -8 -35 -1 -42 9 -4 5 -6 0 -5 -13 1 -24 13 -30 19 -10 5 13 28 2 28
-13 0 -6 -5 -7 -12 -3 -7 5 -8 3 -3 -6 6 -10 11 -10 20 3 16 22 26 22 19 0 -3
-10 2 -5 11 10 10 18 22 26 31 23 9 -4 18 3 23 16 8 21 8 21 14 -3 5 -18 9
-21 18 -12 9 9 9 16 -2 29 -13 16 -12 16 9 5 12 -6 22 -8 22 -4 0 4 5 1 11 -7
9 -13 10 -13 6 0 -2 8 -9 15 -15 15 -5 0 -14 3 -18 7 -3 4 3 6 15 3 11 -2 21
0 21 5 0 5 8 11 18 14 9 3 28 22 42 43 l25 36 0 611 c1 582 5 674 26 677 5 1
14 2 19 3 6 0 14 7 19 14 7 11 9 10 14 -3 5 -10 3 -14 -5 -9 -7 4 -8 3 -4 -4
4 -7 -1 -10 -13 -7 -19 3 -23 -16 -7 -32 4 -4 6 -1 4 7 -2 8 2 14 9 15 6 0 15
3 19 7 4 4 14 2 23 -5 14 -10 14 -10 4 3 -10 13 -8 18 6 27 14 9 18 8 18 -3 0
-7 -5 -10 -10 -7 -6 3 -7 1 -3 -5 4 -6 13 -9 21 -6 8 4 13 9 11 13 -3 4 8 7
24 6 15 0 26 -3 23 -7 -2 -5 3 -8 11 -8 9 0 16 -6 16 -12 1 -7 7 -2 14 11 l14
24 6 -21 c4 -12 12 -22 17 -22 6 0 7 -6 3 -12 -6 -10 -5 -10 8 -1 8 7 19 9 24
5 4 -4 2 1 -5 11 -20 25 -6 21 23 -8 14 -14 21 -25 16 -25 -17 0 -25 5 -23 12
2 4 -4 5 -12 1 -13 -5 -13 -7 2 -19 17 -13 17 -14 1 -8 -10 3 -18 1 -18 -5 0
-6 6 -10 13 -8 6 1 11 -4 9 -12 -2 -7 6 -20 18 -28 11 -8 20 -20 20 -26 0 -9
-2 -9 -8 -1 -10 16 -52 28 -52 15 0 -6 3 -10 8 -10 22 4 34 -3 28 -16 -3 -8
-9 -22 -12 -30 -3 -8 -1 -15 6 -15 6 0 9 4 6 8 -2 4 -1 14 4 22 7 12 9 10 8
-5 -1 -27 5 -48 17 -58 6 -5 3 -7 -7 -3 -10 3 -18 1 -18 -4 0 -5 8 -14 18 -19
10 -6 12 -11 4 -11 -7 0 -11 -4 -7 -9 3 -5 1 -12 -5 -16 -6 -4 -7 -11 -4 -17
4 -6 10 -5 16 3 8 11 9 11 5 -1 -2 -8 -10 -14 -16 -13 -6 2 -11 -3 -11 -10 0
-6 -10 -1 -21 13 -16 20 -18 21 -10 4 6 -12 8 -24 4 -27 -3 -3 6 -4 21 -1 26
4 36 -9 14 -22 -7 -5 -8 -3 -3 5 6 10 3 11 -14 2 -24 -13 -28 -23 -6 -15 8 4
15 1 15 -6 0 -9 8 -7 23 6 22 19 22 19 5 -1 -21 -26 -23 -36 -6 -46 10 -7 10
-9 0 -9 -7 0 -11 -4 -7 -9 3 -5 1 -12 -5 -16 -6 -4 -7 -11 -4 -17 4 -6 10 -5
16 3 8 11 9 10 5 -2 -3 -9 0 -23 6 -30 7 -7 2 -5 -10 5 -18 15 -23 16 -23 5 0
-9 -7 -5 -18 9 -17 22 -18 22 -18 3 0 -11 2 -18 5 -16 5 5 30 -26 31 -37 0 -5
-8 -8 -17 -8 -17 -1 -17 -1 0 -11 9 -5 17 -15 17 -21 0 -6 -7 -5 -17 3 -16 13
-17 12 -4 -3 17 -22 34 -13 25 14 -4 14 -2 18 5 14 12 -8 10 -37 -4 -70 -5
-12 -3 -21 6 -27 12 -7 12 -10 0 -21 -8 -7 -11 -8 -8 -2 9 16 -19 39 -28 24
-3 -6 -10 -8 -15 -5 -5 3 -11 1 -14 -4 -4 -5 2 -8 11 -6 22 3 45 -14 36 -28
-3 -6 -1 -7 5 -3 7 4 8 -3 2 -23 -4 -16 -5 -32 -2 -36 4 -3 0 -10 -8 -15 -10
-6 -11 -12 -2 -22 7 -9 8 -19 2 -28 -13 -20 -12 -30 1 -30 5 0 8 4 5 8 -2 4
-1 14 4 22 7 12 9 10 8 -5 -1 -27 5 -48 17 -58 6 -5 3 -7 -7 -3 -10 3 -18 1
-18 -4 0 -5 8 -14 18 -19 10 -6 12 -11 4 -11 -7 0 -11 -4 -7 -9 3 -5 1 -12 -5
-16 -6 -4 -7 -11 -4 -17 4 -6 10 -5 16 3 8 11 9 10 5 -2 -3 -9 0 -23 6 -30 7
-7 2 -5 -10 5 -18 15 -23 16 -23 5 0 -9 -7 -5 -18 9 -17 22 -18 22 -18 3 0
-11 2 -18 5 -16 5 5 30 -26 31 -37 0 -5 -8 -8 -17 -8 -17 -1 -17 -1 0 -11 9
-5 17 -15 17 -21 0 -6 -7 -5 -17 3 -16 13 -17 12 -4 -3 17 -22 34 -13 25 14
-4 14 -2 18 5 14 12 -8 10 -37 -4 -70 -5 -12 -3 -21 6 -27 12 -7 12 -10 0 -21
-8 -7 -11 -8 -8 -2 9 16 -19 39 -28 24 -3 -6 -10 -8 -15 -5 -5 3 -11 1 -14 -4
-4 -5 2 -8 11 -6 22 3 45 -14 36 -28 -3 -6 -1 -7 5 -3 7 4 8 -2 3 -21 -4 -16
-6 -34 -4 -40 3 -7 0 -13 -6 -13 -6 0 -11 -5 -11 -11 0 -5 5 -7 10 -4 6 3 10
-1 10 -10 0 -10 -5 -13 -12 -9 -9 5 -9 2 1 -9 9 -12 10 -21 4 -29 -6 -7 -10
-21 -10 -30 0 -14 3 -15 14 -6 8 6 12 17 9 24 -8 21 10 26 25 7 10 -12 10 -14
2 -9 -7 4 -13 3 -13 -3 0 -5 3 -11 8 -14 4 -2 2 -2 -5 -1 -6 2 -14 -4 -17 -12
-8 -21 -8 -24 5 -24 5 0 7 6 3 13 -6 9 -4 9 8 -1 13 -10 17 -10 21 0 2 7 8 9
13 5 5 -4 2 -12 -6 -17 -8 -6 -11 -10 -7 -10 4 0 3 -9 -3 -20 -9 -16 -8 -19 6
-13 12 4 15 3 10 -5 -5 -8 -1 -10 11 -5 15 6 16 4 5 -9 -10 -13 -10 -18 -1
-24 7 -4 9 -3 5 4 -3 6 2 15 11 21 17 10 16 11 -4 17 -13 3 -23 10 -23 16 0 5
10 3 23 -4 12 -7 25 -12 28 -11 3 1 6 -4 6 -12 0 -8 -4 -12 -8 -9 -4 2 -11 -1
-15 -7 -4 -8 -3 -9 4 -5 7 4 12 1 12 -6 0 -7 8 -2 18 12 16 24 51 42 37 20 -3
-5 -1 -10 6 -10 10 0 10 -3 1 -12 -15 -15 -15 -28 -1 -28 5 0 8 4 5 9 -3 5 1
14 9 21 8 7 15 9 15 5 0 -4 7 -2 15 5 8 7 15 9 15 4 0 -5 5 -1 11 8 5 10 17
15 27 12 14 -5 14 -4 3 4 -11 8 -23 5 -43 -9 -16 -12 -28 -15 -28 -9 0 6 -5 8
-12 4 -7 -4 -8 -3 -4 4 4 6 14 8 23 5 11 -4 14 -3 9 5 -5 8 -1 10 10 5 13 -5
15 -3 9 7 -5 9 -4 11 3 6 7 -4 12 -2 12 5 0 8 5 7 17 -2 9 -8 14 -9 10 -3 -4
7 8 22 28 35 19 13 35 27 35 32 0 4 8 7 18 7 14 0 14 2 3 9 -11 7 -12 13 -4
23 6 7 9 21 8 31 -2 9 1 17 6 17 8 0 14 -54 10 -87 -1 -7 3 -13 9 -13 6 0 8
-5 4 -11 -4 -7 2 -6 17 2 22 11 23 11 11 -4 -11 -13 -11 -20 2 -44 8 -15 15
-22 16 -15 0 6 10 12 23 11 21 0 21 -1 2 -9 -16 -7 -13 -9 18 -9 20 -1 37 -5
37 -10 0 -5 -8 -8 -17 -6 -10 1 -12 0 -5 -2 7 -3 9 -9 6 -15 -4 -6 -2 -8 4 -4
5 3 12 1 14 -6 3 -7 7 -5 11 6 5 11 3 15 -5 10 -7 -4 -8 -3 -4 4 7 12 36 5 36
-8 0 -5 -6 -11 -12 -14 -7 -3 -2 -3 11 0 17 5 21 3 16 -6 -5 -9 -4 -11 4 -6 8
5 9 12 2 20 -7 8 -4 12 10 12 13 0 18 -5 14 -15 -3 -9 -3 -12 1 -8 4 4 14 1
22 -6 13 -10 14 -9 7 2 -6 11 -4 13 9 8 14 -6 17 -3 12 10 -4 10 -4 14 0 10 4
-4 16 1 27 10 19 18 20 17 6 -7 -8 -14 -21 -34 -29 -45 -15 -19 -14 -20 6 -2
11 9 24 14 28 10 4 -5 6 0 4 9 -1 9 2 17 7 17 6 1 10 -4 10 -11 0 -6 11 -12
25 -14 14 -1 19 0 12 2 -6 3 -9 11 -5 17 4 7 -2 5 -13 -2 -18 -14 -18 -14 -1
5 11 12 20 15 25 9 8 -13 22 -13 41 -1 10 7 12 3 6 -15 -5 -19 -4 -21 4 -9 7
9 11 10 11 3 0 -6 9 -11 20 -10 21 1 26 12 10 22 -5 3 -10 1 -10 -6 0 -16 -13
-2 -16 17 -2 14 0 14 21 0 13 -9 26 -12 30 -7 6 10 31 9 41 -2 11 -11 36 -8
29 3 -4 7 3 9 19 6 16 -3 26 0 26 7 1 7 7 -1 14 -18 10 -25 13 -26 19 -12 5
13 3 16 -6 11 -6 -4 -8 -3 -4 1 10 12 38 15 31 4 -3 -5 0 -9 5 -9 6 0 11 6 11
13 0 6 5 4 11 -5 14 -25 26 -22 44 10 l15 27 -4 -27 c-3 -16 0 -28 5 -28 5 0
9 9 9 20 0 13 5 18 15 14 13 -5 13 -9 3 -23 -11 -14 -11 -14 3 -4 12 10 18 10
29 0 9 -9 11 -9 6 0 -3 6 1 16 11 21 14 9 15 13 4 26 -7 9 -10 16 -6 16 4 0
14 -8 22 -17 14 -17 14 -17 9 0 -3 10 -2 15 3 12 6 -3 14 2 19 11 9 15 10 15
17 -6 6 -18 9 -20 16 -9 11 18 12 32 1 25 -5 -3 -9 1 -9 9 0 10 4 12 12 5 7
-5 16 -6 20 -2 5 4 5 2 1 -5 -3 -6 -2 -15 4 -18 6 -4 10 -3 9 2 -3 19 2 33 12
33 6 0 8 -10 5 -22 -6 -23 -6 -23 6 0 9 19 9 25 -3 33 -12 7 -12 9 1 9 8 0 35
16 59 35 24 19 50 35 58 35 8 0 12 4 9 9 -3 5 5 20 18 34 14 15 27 36 31 47 3
11 11 20 17 20 6 0 9 2 6 6 -3 3 1 26 9 52 17 54 25 317 12 410 -9 63 -41 141
-77 187 -19 24 -21 31 -9 40 27 20 90 164 90 205 0 23 4 43 8 46 5 2 4 16 -1
29 -5 14 -6 25 -1 25 4 0 7 12 5 28 -2 15 -6 56 -9 92 -14 176 -115 314 -271
373 -55 20 -78 22 -359 24 -330 3 -352 0 -414 -53 -21 -18 -41 -30 -45 -27 -3
3 -6 -3 -6 -15 0 -12 -4 -22 -10 -22 -5 0 -10 5 -10 10 0 6 -5 10 -12 10 -7 0
-5 -7 5 -18 11 -12 13 -22 7 -32 -8 -13 -11 -13 -22 -1 -9 10 -10 12 -1 7 9
-5 11 -2 6 10 -6 16 -17 6 -13 -11 0 -3 -9 -15 -22 -25 -13 -11 -19 -19 -14
-20 6 0 1 -6 -10 -14 -13 -10 -15 -14 -4 -13 8 1 16 -2 17 -7 1 -5 7 -12 13
-16 9 -5 6 -10 -9 -15 -12 -3 -19 -11 -15 -16 4 -6 11 -6 20 2 10 8 14 8 14 0
0 -6 -5 -11 -11 -11 -8 0 -8 -5 1 -15 10 -12 9 -16 -4 -21 -14 -5 -15 -9 -4
-23 19 -23 16 -48 -7 -65 -17 -13 -18 -15 -3 -16 21 0 32 -16 17 -26 -8 -4 -9
-3 -5 4 4 7 1 12 -9 12 -12 0 -14 -4 -6 -19 6 -10 8 -28 6 -41 -3 -17 -1 -20
13 -15 13 5 14 4 5 -6 -10 -10 -15 -9 -28 1 -9 8 -15 8 -15 2 0 -6 10 -18 22
-26 12 -9 17 -16 11 -16 -7 0 -10 -10 -7 -24 2 -14 -1 -28 -6 -31 -8 -5 -7
-11 1 -21 8 -10 8 -14 0 -14 -6 0 -11 -4 -11 -10 0 -5 8 -10 18 -10 13 0 14
-2 4 -9 -10 -6 -10 -11 3 -21 15 -13 14 -15 -7 -32 -18 -14 -20 -18 -6 -18 21
0 32 -16 17 -26 -8 -4 -9 -3 -5 4 4 7 1 12 -9 12 -12 0 -14 -4 -6 -19 6 -10 8
-28 6 -41 -3 -17 -1 -20 13 -15 13 5 14 4 5 -6 -10 -10 -15 -9 -28 1 -9 8 -15
8 -15 2 0 -6 10 -18 22 -26 12 -9 17 -16 11 -16 -7 0 -10 -10 -7 -24 2 -14 -1
-28 -6 -31 -8 -5 -7 -11 1 -21 8 -10 8 -14 0 -14 -6 0 -11 -4 -11 -10 0 -5 8
-10 18 -10 13 0 14 -2 4 -9 -10 -6 -10 -11 3 -21 15 -13 14 -15 -7 -32 -18
-14 -20 -18 -6 -18 21 0 32 -16 17 -26 -8 -4 -9 -3 -5 4 4 7 1 12 -9 12 -12 0
-14 -4 -6 -19 6 -10 8 -28 6 -41 -3 -17 -1 -20 13 -15 13 5 14 4 5 -6 -10 -10
-15 -9 -28 1 -9 8 -15 8 -15 2 0 -6 10 -18 22 -26 12 -9 17 -16 11 -16 -7 0
-10 -10 -7 -24 2 -14 -1 -28 -6 -31 -8 -5 -7 -11 1 -21 8 -10 8 -14 0 -14 -6
0 -11 -4 -11 -10 0 -5 8 -10 18 -10 9 0 13 -4 7 -8 -5 -4 -10 -24 -11 -45 0
-30 3 -36 15 -32 13 5 13 4 4 -6 -10 -10 -15 -9 -28 1 -9 7 -15 8 -15 2 0 -6
12 -19 27 -30 19 -14 23 -21 13 -27 -8 -5 -11 -4 -7 2 4 6 0 14 -9 17 -12 5
-15 2 -10 -9 3 -9 2 -14 -3 -10 -5 3 -11 -1 -13 -7 -3 -7 -4 12 -3 42 1 39 5
54 14 52 7 -1 11 3 8 10 -2 7 -11 12 -18 10 -11 -3 -12 -1 -1 9 13 14 17 33 4
25 -4 -2 -8 4 -8 14 0 10 4 16 8 14 13 -8 9 11 -4 25 -11 10 -10 12 1 9 7 -2
16 3 18 10 3 7 -1 11 -7 10 -15 -4 -22 29 -9 38 6 4 6 10 0 18 -13 15 -7 52 8
48 16 -3 14 14 -5 32 -8 9 -11 16 -5 16 13 0 10 22 -4 32 -7 5 -7 8 0 8 6 0
11 11 11 25 1 14 -1 23 -5 21 -4 -3 -7 4 -7 14 0 10 4 16 8 14 13 -8 9 11 -4
25 -11 10 -10 12 1 9 7 -2 16 3 18 10 3 7 -1 11 -7 10 -15 -4 -22 29 -9 38 6
4 6 10 0 18 -13 15 -7 52 8 49 16 -4 14 13 -5 31 -8 9 -11 16 -5 16 13 0 10
22 -4 32 -7 5 -7 8 0 8 6 0 11 11 11 25 1 14 -1 23 -5 21 -4 -3 -7 4 -7 14 0
10 4 16 8 14 13 -8 9 11 -4 25 -11 10 -10 12 1 9 7 -2 16 3 18 10 3 7 -1 11
-7 10 -15 -4 -22 29 -9 38 6 4 6 10 0 18 -13 15 -7 52 8 49 16 -4 14 13 -5 31
-8 9 -11 16 -6 16 5 0 9 7 9 15 0 8 -5 15 -11 15 -7 0 -7 3 -1 8 12 9 18 32 7
32 -4 0 -7 35 -7 78 1 42 -3 96 -8 119 -10 55 -77 129 -132 148 -56 19 -388
19 -470 0 -64 -15 -204 -69 -214 -82 -10 -14 -24 -9 -63 20 -83 64 -120 71
-378 73 -145 2 -246 -1 -265 -8z m1602 -165 c-9 -2 -15 -8 -12 -13 3 -4 -2
-10 -10 -14 -8 -3 -14 0 -12 7 3 16 19 27 37 26 11 -1 10 -3 -3 -6z m-1802
-33 c3 -5 -1 -10 -10 -10 -9 0 -13 5 -10 10 3 6 8 10 10 10 2 0 7 -4 10 -10z
m1810 0 c-3 -5 -12 -10 -18 -10 -7 0 -6 4 3 10 19 12 23 12 15 0z m-1774 -27
c13 -16 12 -17 -3 -4 -10 7 -18 15 -18 17 0 8 8 3 21 -13z m-31 -8 c0 -8 -6
-15 -12 -15 -9 0 -8 -4 2 -10 12 -8 12 -10 1 -10 -10 0 -11 -3 -2 -14 9 -11 9
-16 -1 -22 -7 -4 -10 -4 -6 1 4 4 0 14 -8 22 -13 14 -13 17 1 33 8 9 12 20 8
23 -3 4 -1 7 5 7 7 0 12 -7 12 -15z m1267 -83 c-10 -10 -14 -22 -10 -27 5 -4
2 -5 -5 -1 -11 6 -10 12 4 27 9 10 19 19 22 19 3 0 -2 -8 -11 -18z m989 -13
c1 -5 2 -12 3 -15 0 -4 8 -1 16 6 8 7 15 9 15 5 0 -5 9 0 20 10 18 17 20 17
14 2 -6 -15 -17 -21 -36 -18 -4 0 -4 -7 -1 -16 4 -11 8 -13 11 -5 2 7 17 12
33 12 17 0 28 4 24 9 -3 5 -1 12 4 15 21 13 20 -14 -1 -28 -12 -9 -18 -16 -12
-16 5 0 15 5 22 12 8 8 15 8 24 0 14 -11 42 -11 53 0 3 3 -5 5 -17 4 -13 -1
-24 4 -25 9 -1 6 5 9 13 7 8 -2 14 3 14 10 0 7 7 2 16 -10 8 -12 12 -26 9 -32
-3 -6 1 -7 9 -4 9 3 14 9 12 13 -3 4 0 13 6 21 8 12 9 11 4 -4 -5 -14 -2 -17
11 -12 16 6 15 5 -1 -13 -13 -14 -14 -21 -5 -27 8 -4 10 -3 5 4 -4 7 -3 12 3
12 20 0 23 -22 5 -36 -11 -9 -13 -13 -7 -9 19 9 53 -13 47 -30 -4 -10 0 -15
15 -15 12 0 21 -5 21 -11 0 -5 4 -8 8 -5 5 3 9 -1 9 -9 0 -12 -4 -12 -19 2
-18 16 -18 16 -12 -3 7 -16 6 -17 -8 -6 -11 9 -18 10 -23 2 -4 -6 -3 -10 2 -9
18 3 27 -2 16 -9 -9 -6 -7 -11 6 -19 14 -9 18 -8 18 3 0 7 -5 10 -10 7 -6 -3
-7 -1 -3 5 5 9 14 7 32 -4 28 -19 28 -20 12 -30 -7 -4 -8 -3 -4 4 4 7 3 12 -3
12 -17 0 -24 -22 -10 -31 9 -6 10 -9 2 -9 -6 0 -18 7 -27 15 -8 8 -18 15 -22
15 -4 0 -4 -3 -1 -7 4 -3 1 -13 -6 -22 -10 -14 -10 -14 4 -4 12 10 18 10 27 1
19 -19 14 -32 -5 -17 -16 13 -17 12 -5 -3 8 -9 21 -14 30 -11 15 4 15 3 2 -6
-14 -10 -7 -16 13 -12 5 1 6 -3 2 -9 -4 -6 -14 -4 -29 5 -20 13 -23 13 -23 0
0 -8 4 -12 8 -9 4 2 13 -6 20 -18 6 -13 8 -20 4 -16 -5 4 -15 2 -24 -5 -14
-11 -14 -10 -2 6 12 15 12 17 -3 11 -9 -3 -16 -12 -16 -19 0 -11 -45 -14 -220
-15 l-220 -1 0 166 c0 130 3 165 13 159 9 -6 9 -5 0 8 -17 20 -5 30 21 16 33
-18 50 -19 35 -2 -6 7 -15 12 -19 9 -5 -3 -11 -2 -14 3 -2 4 21 8 52 7 46 0
56 3 54 15 -2 8 0 11 5 7 4 -5 9 -13 9 -18z m-1790 -2 c8 3 14 1 14 -5 0 -6
-8 -9 -17 -7 -10 1 -24 -2 -31 -8 -9 -7 -18 -5 -30 8 -9 10 -12 15 -7 12 6 -3
17 -2 25 3 9 5 19 5 24 0 4 -4 15 -6 22 -3z m861 -9 c-10 -5 -15 -13 -12 -19
4 -5 4 -9 1 -9 -3 0 -10 8 -15 18 -7 14 -5 17 17 19 22 1 23 0 9 -9z m53 -18
c0 -5 -5 -10 -11 -10 -5 0 -7 5 -4 10 3 6 8 10 11 10 2 0 4 -4 4 -10z m1150
-10 c-8 -5 -7 -9 5 -14 9 -3 13 -11 9 -17 -4 -7 -1 -10 7 -7 8 3 13 11 11 17
-1 7 3 9 9 6 8 -5 8 -10 0 -18 -14 -14 -14 -30 -1 -22 6 4 9 1 8 -7 -2 -7 4
-12 12 -10 8 2 12 0 7 -4 -13 -13 -45 -12 -40 2 2 7 -5 15 -17 19 -16 5 -18
10 -10 20 8 9 7 14 -5 18 -8 4 -12 13 -9 22 3 8 11 12 16 9 6 -4 6 -9 -2 -14z
m-1154 -56 c-3 -9 -6 -18 -6 -20 0 -2 -4 -4 -9 -4 -7 0 -8 17 -2 38 1 1 6 2
12 2 6 0 8 -7 5 -16z m19 -24 c-4 -6 -1 -19 6 -28 12 -16 12 -16 -5 0 -16 14
-15 38 0 38 3 0 2 -5 -1 -10z m-727 -75 c-27 -14 -30 -13 -23 7 4 10 14 14 26
11 19 -5 19 -6 -3 -18z m727 5 c-1 -11 -4 -22 -7 -25 -4 -5 -4 34 1 43 4 8 7
-1 6 -18z m-1398 -67 c0 -9 -4 -10 -14 -2 -7 6 -13 12 -13 14 0 1 6 2 13 2 8
0 14 -6 14 -14z m1783 -13 c0 -5 -5 -10 -11 -10 -5 0 -7 5 -4 10 3 6 8 10 11
10 2 0 4 -4 4 -10z m-1800 -10 c0 -5 -5 -10 -11 -10 -5 0 -7 5 -4 10 3 6 8 10
11 10 2 0 4 -4 4 -10z m700 -40 c0 -5 -5 -10 -11 -10 -5 0 -7 5 -4 10 3 6 8
10 11 10 2 0 4 -4 4 -10z m-4 -60 c-2 -22 1 -40 5 -40 5 0 9 -4 9 -8 0 -5 -6
-9 -13 -9 -8 0 -12 16 -12 49 0 26 3 48 7 48 4 0 6 -18 4 -40z m-661 -9 c3 -5
2 -12 -3 -15 -5 -3 -9 1 -9 9 0 17 3 19 12 6z m-40 -42 c-5 -16 -4 -19 5 -14
8 5 11 4 6 -3 -3 -5 0 -13 6 -16 7 -2 3 -4 -9 -2 -31 3 -36 11 -23 35 14 27
23 27 15 0z m712 -25 c-3 -3 -12 -4 -19 -1 -8 3 -5 6 6 6 11 1 17 -2 13 -5z
m24 -41 c13 -16 12 -17 -3 -4 -10 7 -18 15 -18 17 0 8 8 3 21 -13z m-41 -33
c-13 -8 -12 -10 3 -10 27 0 20 -15 -8 -16 -21 -2 -23 1 -14 17 5 10 15 19 22
19 7 0 6 -4 -3 -10z m722 -14 c4 3 9 1 12 -4 3 -6 0 -9 -6 -8 -21 3 -38 16
-38 29 0 7 6 4 14 -5 7 -10 15 -15 18 -12z m388 -46 c0 -5 -5 -10 -11 -10 -5
0 -7 5 -4 10 3 6 8 10 11 10 2 0 4 -4 4 -10z m-385 -50 c3 -5 1 -10 -4 -10 -6
0 -11 5 -11 10 0 6 2 10 4 10 3 0 8 -4 11 -10z m-708 -56 c-3 -3 -12 -4 -19
-1 -8 3 -5 6 6 6 11 1 17 -2 13 -5z m1484 -7 c-6 -8 -8 -17 -4 -21 4 -4 0 -4
-10 0 -9 3 -17 10 -17 16 0 5 4 7 9 3 5 -3 12 -1 16 5 3 5 9 10 12 10 3 0 0
-6 -6 -13z m224 -7 c-4 -22 5 -26 22 -9 7 7 19 8 30 4 10 -5 21 -8 24 -7 3 0
6 -5 6 -12 0 -7 -6 -13 -13 -13 -7 0 -10 5 -7 10 4 6 1 7 -7 2 -9 -5 -11 -4
-6 3 4 7 1 12 -9 12 -10 0 -13 -5 -9 -12 5 -7 2 -8 -7 -3 -8 5 -11 4 -6 -1 5
-5 14 -9 20 -9 7 0 11 -9 9 -20 -2 -18 -1 -18 8 -3 6 9 17 15 25 12 8 -4 15
-1 15 5 0 6 4 11 10 11 5 0 7 -6 4 -14 -3 -8 0 -23 6 -33 8 -12 10 -13 7 -3
-3 9 2 25 10 35 13 19 14 18 9 -9 -3 -16 0 -38 6 -50 15 -27 18 -46 8 -46 -5
0 -8 -9 -7 -19 1 -16 4 -18 16 -8 12 10 13 8 7 -11 -5 -14 -3 -22 4 -22 6 0 9
4 6 8 -3 5 1 9 8 9 7 0 13 -6 13 -13 0 -7 -4 -11 -9 -8 -4 3 -8 1 -8 -5 0 -5
6 -11 13 -14 6 -2 5 -3 -3 -2 -8 2 -24 6 -35 10 -18 6 -18 5 -2 -5 9 -6 17
-16 17 -22 0 -7 -4 -7 -13 1 -10 8 -14 7 -14 -4 0 -7 5 -13 11 -12 6 1 10 -4
8 -12 -2 -8 3 -11 12 -8 20 8 53 -17 36 -28 -9 -5 -11 -4 -6 3 4 7 3 12 -2 12
-17 0 -22 -13 -9 -28 9 -13 9 -14 0 -8 -7 4 -13 3 -13 -3 0 -5 6 -11 13 -14 6
-2 2 -3 -9 -1 -29 5 -52 -22 -35 -39 10 -9 11 -8 6 4 -7 20 10 35 20 18 9 -13
-8 -31 -32 -37 -26 -5 -416 -9 -431 -4 -10 3 -12 48 -12 194 1 164 4 188 16
177 12 -10 13 -9 8 5 -3 9 -10 16 -15 16 -6 0 -4 6 2 13 11 11 16 10 29 -2 9
-9 15 -20 13 -26 -3 -5 6 3 20 18 20 24 25 26 36 13 9 -11 20 -12 44 -5 40 11
37 12 31 -4 -3 -8 3 -20 13 -28 16 -12 17 -12 6 2 -13 16 -8 29 9 29 5 0 6 -5
3 -10 -4 -6 -1 -9 7 -8 7 2 12 -3 10 -10 -1 -8 2 -11 8 -7 7 4 7 13 -1 26 -6
12 -8 23 -5 27 3 3 6 0 6 -7 0 -7 5 -9 10 -6 6 3 10 -2 10 -11 0 -16 15 -11
15 4 0 9 15 32 20 32 2 0 2 -9 0 -20z m-2385 6 c0 -2 -8 -10 -17 -17 -16 -13
-17 -12 -4 4 13 16 21 21 21 13z m701 -33 c13 -16 12 -17 -3 -4 -10 7 -18 15
-18 17 0 8 8 3 21 -13z m-721 -7 c0 -2 -7 -6 -15 -10 -8 -3 -15 -1 -15 4 0 6
7 10 15 10 8 0 15 -2 15 -4z m1394 -11 c-4 -8 -8 -15 -10 -15 -2 0 -4 7 -4 15
0 8 4 15 10 15 5 0 7 -7 4 -15z m22 -37 c5 -7 2 -8 -6 -3 -7 4 -16 2 -20 -5
-4 -7 -13 -9 -19 -6 -6 4 -9 11 -7 15 7 11 45 11 52 -1z m1154 2 c0 -5 -5 -10
-11 -10 -5 0 -7 5 -4 10 3 6 8 10 11 10 2 0 4 -4 4 -10z m17 -24 c-4 -9 1 -16
11 -18 13 -3 11 -5 -6 -10 -13 -4 -21 -4 -18 -1 3 4 0 13 -7 21 -9 13 -9 14 1
8 6 -4 12 -2 12 3 0 6 3 11 6 11 3 0 4 -6 1 -14z m-1177 -30 c0 -3 -4 -8 -10
-11 -5 -3 -10 -1 -10 4 0 6 5 11 10 11 6 0 10 -2 10 -4z m1190 -21 c-10 -12
-9 -15 5 -15 10 0 16 -3 12 -6 -3 -4 -14 -3 -24 1 -10 5 -21 7 -25 7 -17 -4
-6 9 15 18 30 12 31 12 17 -5z m-810 -45 c0 -5 -5 -10 -11 -10 -5 0 -7 5 -4
10 3 6 8 10 11 10 2 0 4 -4 4 -10z m-1098 -29 c-9 -6 -9 -22 3 -56 6 -19 6
-19 -6 -1 -18 29 -20 76 -2 69 8 -3 10 -9 5 -12z m27 -35 c9 -11 9 -16 -1 -22
-7 -4 -10 -4 -6 1 4 4 3 14 -3 22 -6 7 -9 13 -6 13 2 0 10 -6 16 -14z m1891
10 c0 -2 -7 -7 -16 -10 -8 -3 -12 -2 -9 4 6 10 25 14 25 6z m-2610 -20 c0 -2
-7 -6 -15 -10 -8 -3 -15 -1 -15 4 0 6 7 10 15 10 8 0 15 -2 15 -4z m1402 -40
c4 3 9 1 12 -4 3 -6 0 -9 -6 -8 -21 3 -38 16 -38 29 0 7 6 4 14 -5 7 -10 15
-15 18 -12z m-709 -9 c3 -8 0 -14 -7 -14 -7 0 -13 6 -13 14 0 7 4 13 8 13 4 0
9 -6 12 -13z m712 -87 c3 -5 1 -10 -4 -10 -6 0 -11 5 -11 10 0 6 2 10 4 10 3
0 8 -4 11 -10z m361 -25 c-1 -23 -2 -24 -13 -8 -9 12 -13 13 -13 3 0 -7 -3
-10 -6 -7 -8 7 14 37 26 37 4 0 7 -11 6 -25z m-1077 -3 c7 -13 6 -19 -2 -19
-7 0 -13 9 -13 19 0 10 1 18 3 18 1 0 7 -8 12 -18z m1076 -49 c-4 -11 -1 -13
12 -9 14 6 15 4 6 -5 -14 -14 -36 -2 -27 14 5 9 4 9 -5 1 -12 -11 -5 -47 8
-40 4 3 8 -5 8 -17 2 -20 1 -20 -8 -4 -6 9 -14 15 -18 13 -4 -3 -6 12 -5 32 2
45 1 43 20 35 8 -3 13 -12 9 -20z m-1071 1 c3 -8 11 -12 17 -8 8 4 9 3 5 -5
-6 -8 -12 -9 -20 -2 -7 6 -15 9 -18 6 -2 -3 -5 2 -5 10 0 20 13 19 21 -1z
m-691 -30 c-5 -13 -7 -13 -14 -2 -7 11 -9 10 -9 -1 0 -8 -3 -11 -6 -8 -9 9 16
38 27 32 4 -3 5 -13 2 -21z m1389 -1 c-6 -2 -9 -10 -6 -15 4 -7 2 -8 -5 -4
-13 9 -5 26 12 25 9 0 8 -2 -1 -6z m-1367 -32 c3 -5 2 -12 -3 -15 -5 -3 -9 1
-9 9 0 17 3 19 12 6z m1389 -13 c-3 -5 -9 -6 -14 -3 -4 3 -10 0 -12 -7 -3 -8
-6 -7 -10 3 -4 11 1 15 17 15 13 0 21 -4 19 -8z m7 -45 c13 -17 13 -17 -6 -3
-11 8 -22 16 -24 17 -2 2 0 3 6 3 6 0 17 -8 24 -17z m367 -25 c-6 -16 -21 -14
-24 4 -1 11 3 15 12 11 8 -3 13 -10 12 -15z m-1058 -2 c0 -2 -7 -6 -15 -10 -8
-3 -15 -1 -15 4 0 6 7 10 15 10 8 0 15 -2 15 -4z m1105 -26 c3 -6 -1 -7 -9 -4
-18 7 -21 14 -7 14 6 0 13 -4 16 -10z m-1825 -14 c0 -3 -4 -8 -10 -11 -5 -3
-10 -1 -10 4 0 6 5 11 10 11 6 0 10 -2 10 -4z m1805 -10 c12 -12 12 -15 -1
-20 -8 -3 -12 -2 -9 4 3 6 1 10 -4 10 -6 0 -11 5 -11 10 0 14 9 12 25 -4z
m-1795 -16 c-10 -6 -11 -10 -2 -10 6 0 12 -5 12 -10 0 -6 -8 -5 -20 2 -14 9
-16 14 -7 20 7 4 17 8 22 8 6 0 3 -5 -5 -10z m784 -39 c3 -5 -1 -11 -9 -14 -9
-4 -12 -1 -8 9 6 16 10 17 17 5z m1199 -16 c-7 -21 -12 -19 -10 4 0 11 5 18 9
15 4 -3 5 -11 1 -19z m567 16 c0 -6 -4 -13 -10 -16 -5 -3 -10 1 -10 9 0 9 5
16 10 16 6 0 10 -4 10 -9z m-2450 -5 c0 -2 -8 -10 -17 -17 -16 -13 -17 -12 -4
4 13 16 21 21 21 13z m2347 -11 c0 -8 -4 -15 -9 -15 -10 0 -11 14 -1 23 9 10
10 9 10 -8z"/>
<path d="M3445 3248 c28 -17 51 -20 36 -5 -6 6 -21 12 -33 14 -22 3 -22 2 -3
-9z"/>
<path d="M3496 3247 c3 -10 9 -15 12 -12 3 3 0 11 -7 18 -10 9 -11 8 -5 -6z"/>
<path d="M3655 3209 c-4 -6 -5 -12 -2 -15 2 -3 7 2 10 11 7 17 1 20 -8 4z"/>
<path d="M1670 3260 c-9 -6 -10 -10 -3 -10 6 0 15 5 18 10 8 12 4 12 -15 0z"/>
<path d="M3444 2552 c3 -5 0 -13 -6 -15 -9 -4 -10 -6 -1 -6 17 -1 25 16 12 25
-7 4 -9 3 -5 -4z"/>
<path d="M3501 2517 c-13 -21 -12 -21 5 -5 10 10 16 20 13 22 -3 3 -11 -5 -18
-17z"/>
<path d="M3619 2513 c-13 -16 -12 -17 3 -5 19 15 42 7 32 -10 -4 -7 -2 -8 5
-4 9 6 9 11 0 22 -15 18 -24 18 -40 -3z"/>
<path d="M3726 2482 c-3 -5 1 -9 9 -9 8 0 12 4 9 9 -3 4 -7 8 -9 8 -2 0 -6 -4
-9 -8z"/>
<path d="M3767 2446 c-4 -10 -3 -15 3 -11 6 3 10 1 10 -6 0 -7 3 -10 6 -6 3 3
2 13 -4 22 -8 16 -9 16 -15 1z"/>
<path d="M3790 2263 c0 -6 6 -14 13 -17 10 -5 10 -7 0 -12 -7 -3 -13 -10 -13
-15 0 -5 9 -4 20 3 10 7 17 14 15 17 -3 2 1 11 8 20 10 14 10 14 -4 4 -12 -10
-18 -10 -27 -1 -9 9 -12 9 -12 1z"/>
<path d="M4622 3599 c-24 -5 -69 -21 -100 -36 -31 -15 -63 -27 -70 -26 -7 1
-11 -1 -8 -4 3 -3 -7 -18 -22 -33 -44 -44 -92 -100 -90 -102 4 -6 -37 -48 -47
-48 -5 0 -3 5 5 10 12 7 10 9 -7 7 -18 -1 -20 -4 -10 -15 16 -20 19 -46 3 -33
-7 6 -17 7 -21 3 -5 -4 -5 2 -1 12 6 16 4 17 -10 6 -14 -12 -13 -15 12 -28 15
-8 22 -17 17 -21 -6 -3 -9 -14 -7 -23 1 -10 -2 -18 -7 -18 -5 0 -9 5 -9 11 0
6 -6 9 -14 6 -8 -3 -17 -1 -20 6 -3 7 -4 3 -3 -8 1 -13 -3 -19 -13 -17 -11 3
-11 -1 3 -16 9 -10 17 -25 17 -33 0 -12 2 -11 10 1 7 11 5 18 -5 26 -13 10
-13 13 2 25 15 12 16 12 10 -3 -3 -9 -1 -18 5 -20 8 -3 7 -11 -1 -26 -7 -12
-9 -28 -5 -34 5 -7 3 -8 -6 -3 -10 6 -12 4 -7 -8 3 -9 2 -19 -3 -22 -5 -3 -7
8 -5 24 2 16 -3 37 -11 47 -14 18 -14 18 -5 -3 14 -28 14 -36 0 -27 -8 4 -8 1
-2 -12 8 -16 11 -129 3 -129 -8 0 -5 -61 4 -67 7 -5 4 -12 -9 -23 -18 -14 -18
-14 -1 -9 16 6 17 4 7 -15 -10 -17 -9 -22 4 -27 8 -4 22 -1 30 6 10 9 15 9 15
1 0 -6 -5 -11 -12 -11 -6 0 -9 -2 -6 -6 3 -3 2 -20 -2 -38 -5 -21 -3 -42 6
-57 8 -16 9 -28 3 -36 -7 -7 -6 -14 2 -19 8 -4 9 -3 5 4 -4 7 -3 12 2 12 6 0
9 11 8 24 0 13 -5 22 -10 18 -5 -3 -6 0 -2 6 4 7 2 12 -5 12 -7 0 -9 3 -6 6 4
4 14 1 24 -7 15 -12 16 -12 11 2 -4 9 -1 16 7 16 11 0 11 -6 -1 -29 -13 -26
-13 -28 3 -29 10 0 13 -3 6 -6 -10 -3 -10 -7 0 -18 7 -7 16 -10 21 -7 5 3 6 0
2 -6 -5 -8 -13 -9 -26 -2 -15 8 -17 7 -13 -11 3 -11 9 -16 12 -10 7 10 33 0
32 -13 -3 -18 0 -29 5 -23 4 3 20 -1 36 -9 22 -12 28 -20 24 -37 -3 -12 -3
-16 0 -9 5 10 8 10 18 -2 10 -14 14 -14 38 -2 29 16 40 12 31 -11 -5 -12 -7
-12 -15 -1 -8 11 -9 11 -6 0 2 -8 7 -12 11 -10 3 2 14 -8 23 -20 12 -17 19
-21 27 -13 9 9 16 6 28 -10 12 -17 18 -19 24 -9 5 9 4 11 -3 6 -7 -4 -12 -4
-12 1 0 4 -4 14 -9 22 -8 13 -12 13 -27 0 -16 -12 -17 -12 -11 3 3 10 2 17 -2
15 -8 -2 -11 3 -11 19 0 4 7 1 15 -6 8 -7 31 -13 50 -14 20 -2 41 -9 48 -16
10 -10 9 -11 -3 -5 -13 7 -13 6 -1 -6 10 -11 15 -11 18 -1 3 6 9 12 14 12 6 0
7 -4 4 -10 -9 -14 8 -12 24 3 11 10 13 9 8 -5 -4 -10 -2 -18 3 -18 6 0 10 8
10 18 1 16 1 16 10 0 8 -13 16 -15 41 -8 23 7 31 6 36 -7 5 -14 7 -13 15 1 5
9 14 16 20 16 6 0 5 -7 -3 -17 -13 -16 -12 -17 4 -4 10 8 16 20 13 27 -3 8 0
11 10 7 17 -6 18 -15 2 -32 -9 -10 -9 -12 -1 -7 6 3 14 2 18 -4 3 -5 11 -10
18 -10 6 0 2 7 -9 15 -19 14 -19 14 3 15 12 0 23 -3 26 -7 2 -5 2 -3 1 4 -2 7
0 14 4 17 4 3 9 -5 9 -16 1 -12 7 -26 12 -31 13 -13 54 -20 47 -9 -3 5 1 9 9
9 10 0 12 -4 5 -12 -7 -9 -6 -16 4 -24 8 -7 13 -21 11 -31 -2 -11 0 -22 6 -25
5 -4 9 -14 9 -23 -1 -12 -5 -10 -14 8 -8 14 -12 28 -10 32 3 5 0 8 -6 8 -6 0
-10 7 -8 16 3 19 -37 30 -47 14 -3 -5 1 -7 9 -4 17 6 46 -43 38 -65 -3 -8 0
-11 7 -7 7 5 11 -1 11 -13 0 -13 -7 -21 -17 -22 -14 0 -14 -2 3 -9 12 -5 25
-14 29 -20 5 -8 11 -7 23 2 15 12 16 11 4 -4 -8 -9 -11 -23 -7 -30 4 -7 1 -6
-7 2 -7 8 -21 21 -31 29 -16 12 -18 12 -15 0 2 -8 -3 -13 -10 -11 -8 1 -11 -2
-7 -8 4 -7 12 -7 18 -2 8 5 19 0 32 -14 27 -29 28 -40 2 -41 -12 0 -16 1 -9 4
6 3 12 9 12 14 0 6 -5 7 -12 3 -6 -4 -8 -3 -4 4 3 6 2 13 -3 16 -5 4 -12 2
-15 -3 -4 -5 -2 -12 4 -16 12 -7 4 -25 -11 -25 -6 0 -7 5 -3 12 5 7 3 8 -6 3
-10 -6 -10 -11 3 -20 9 -7 13 -16 9 -20 -4 -5 -2 -5 4 -2 6 3 21 -1 33 -9 20
-15 21 -17 7 -33 -9 -10 -14 -20 -11 -23 6 -5 -11 -9 -60 -11 -19 -1 -35 -4
-35 -7 0 -3 -107 -5 -237 -4 -250 1 -289 -4 -318 -36 -10 -11 -22 -17 -28 -13
-6 3 -7 1 -3 -5 4 -6 0 -24 -9 -39 -9 -16 -14 -20 -11 -11 2 9 -1 19 -8 21
-14 6 -16 -34 -3 -44 5 -3 1 -9 -8 -12 -9 -4 -14 -3 -11 2 6 10 -24 25 -32 16
-3 -3 0 -5 6 -5 7 0 12 -4 12 -10 0 -5 -5 -9 -12 -7 -7 1 -12 -2 -13 -8 -1
-17 -16 -36 -25 -30 -5 3 -12 0 -16 -6 -4 -7 -3 -9 4 -5 6 3 13 2 17 -3 3 -6
13 -7 21 -4 13 5 13 7 2 14 -11 7 -11 9 1 9 7 0 11 6 8 14 -4 10 0 12 15 8 18
-4 18 -6 4 -14 -9 -5 -14 -13 -11 -17 2 -5 -2 -14 -10 -21 -10 -8 -13 -21 -9
-33 5 -15 3 -17 -7 -11 -11 6 -12 5 -2 -8 7 -8 9 -19 5 -24 -4 -4 1 -2 11 5
12 10 21 11 28 4 8 -8 7 -13 -2 -18 -8 -6 -10 -4 -4 6 7 11 5 11 -11 -1 -10
-8 -21 -16 -24 -18 -2 -2 8 -1 24 2 19 3 26 1 23 -7 -2 -7 0 -21 5 -32 7 -18
8 -18 4 3 -3 17 -1 22 10 18 9 -3 14 1 15 12 0 15 1 15 8 -1 4 -10 11 -19 16
-19 19 -1 35 -10 35 -20 0 -7 -5 -6 -13 1 -8 6 -18 7 -22 3 -5 -4 -5 -2 -2 5
8 13 -18 12 -30 -2 -4 -4 -2 -5 5 -1 6 4 12 2 12 -4 0 -6 8 -10 18 -8 9 2 16
-3 14 -9 -3 -17 15 -17 21 0 4 9 8 8 17 -3 10 -13 11 -13 7 2 -3 9 1 19 9 22
21 8 24 8 24 -5 0 -5 -4 -7 -10 -4 -5 3 -10 1 -10 -5 0 -7 6 -10 13 -7 6 2 20
-2 29 -10 16 -14 17 -13 12 13 -2 16 -1 25 3 19 11 -13 47 -19 39 -6 -4 5 -2
12 3 15 11 7 9 -13 -2 -31 -6 -9 -3 -11 7 -7 9 3 16 14 16 23 0 14 2 14 10 1
6 -10 4 -21 -8 -35 -17 -20 -17 -20 5 -1 13 10 20 23 17 27 -3 5 2 6 10 3 9
-3 14 -10 11 -14 -4 -7 24 -6 33 0 1 2 7 4 12 5 6 1 13 4 18 5 4 1 11 2 16 1
5 -1 6 4 3 12 -3 7 1 14 8 14 9 0 11 -7 5 -22 -6 -16 -4 -22 6 -22 8 0 13 6
12 13 -2 7 2 13 7 13 6 1 10 -4 10 -11 0 -6 16 -13 35 -14 19 -2 29 0 23 4 -7
4 -8 13 -4 20 6 9 13 3 25 -20 15 -29 16 -30 14 -8 -2 19 2 25 18 26 16 1 20
-4 18 -22 -1 -13 2 -22 7 -18 5 3 7 10 4 15 -4 5 -1 17 5 26 11 16 11 16 6 1
-3 -10 -1 -20 5 -23 5 -4 9 -3 8 2 -3 19 2 33 11 33 6 0 10 -7 8 -16 -2 -10 3
-18 10 -20 7 -1 8 0 3 2 -6 3 -7 12 -4 20 4 12 7 12 18 -2 8 -12 14 -13 19 -6
4 6 13 9 21 5 8 -3 15 0 15 7 0 7 7 10 18 5 13 -5 14 -4 5 6 -10 10 -15 9 -28
-1 -8 -7 -15 -9 -15 -5 0 4 -6 2 -13 -4 -10 -8 -14 -7 -14 3 0 8 7 13 16 11 9
-1 21 2 28 7 7 5 18 6 24 2 18 -11 60 -14 53 -3 -3 5 1 9 9 9 17 0 30 27 20
42 -3 6 -1 8 5 4 5 -3 12 -3 15 1 2 5 2 2 0 -5 -1 -7 1 -11 6 -7 5 3 12 -1 14
-7 3 -7 4 0 4 17 -1 17 3 30 10 30 7 0 34 18 60 39 26 22 40 31 31 20 -10 -11
-18 -24 -18 -29 0 -11 45 47 45 60 1 5 7 9 14 7 7 -1 10 1 7 6 -3 5 3 18 12
28 22 23 59 109 68 155 9 50 11 305 2 371 -20 150 -126 277 -273 326 -48 16
-88 20 -213 22 -182 1 -218 11 -251 70 -18 33 -21 53 -20 138 1 90 3 102 26
128 16 19 26 25 29 17 3 -7 12 -13 20 -13 9 0 12 5 9 10 -3 6 -1 10 4 10 14 0
14 -13 1 -26 -6 -6 -3 -10 10 -11 11 -1 22 3 25 8 4 5 11 6 17 3 6 -4 8 -2 5
3 -4 6 0 13 8 17 8 3 15 1 15 -5 0 -6 7 -6 20 1 11 6 20 8 20 4 0 -3 8 0 17 7
12 10 14 10 9 1 -4 -7 -1 -15 8 -18 9 -3 13 -11 9 -18 -4 -7 -1 -7 9 1 8 7 19
9 23 5 5 -4 5 -1 1 6 -4 7 -13 9 -19 6 -7 -4 -9 -3 -5 1 12 12 58 15 58 4 0
-6 -4 -8 -8 -5 -5 3 -9 -1 -9 -9 0 -8 4 -15 9 -15 4 0 8 5 8 11 0 6 7 8 16 5
13 -5 14 -4 6 7 -9 11 -7 13 8 12 21 -1 41 -15 22 -15 -7 0 -12 -5 -12 -11 0
-5 4 -8 9 -5 5 4 11 3 14 -1 2 -5 2 -2 0 5 -4 16 43 14 67 -3 12 -8 13 -7 3 5
-10 13 -8 18 6 27 14 9 18 8 18 -3 0 -7 -4 -11 -9 -8 -4 3 -5 -3 -1 -12 4 -11
8 -13 11 -6 2 7 8 12 13 12 6 0 7 -6 3 -12 -5 -9 -2 -9 9 1 18 14 23 26 8 16
-5 -3 -12 -1 -16 4 -3 6 6 8 21 5 15 -3 23 -1 20 5 -4 5 -1 13 5 17 8 4 9 3 5
-4 -4 -7 -2 -12 5 -12 7 0 5 -6 -6 -13 -14 -11 -15 -16 -5 -22 8 -5 11 -4 7 2
-4 5 5 16 19 24 21 11 27 11 33 0 6 -10 10 -9 15 4 3 9 4 21 0 26 -3 5 3 12
13 16 10 4 22 11 26 17 5 6 5 0 2 -13 -6 -21 -5 -22 8 -10 8 8 14 17 14 20 -1
4 1 6 4 5 11 -2 79 85 80 102 0 10 2 26 4 37 7 38 -31 102 -74 124 -38 20 -56
21 -318 20 -153 -1 -297 -5 -321 -10z m372 -335 c3 -8 2 -12 -4 -9 -6 3 -10
10 -10 16 0 14 7 11 14 -7z m-299 -14 c-3 -5 -11 -10 -16 -10 -6 0 -7 5 -4 10
3 6 11 10 16 10 6 0 7 -4 4 -10z m-434 -63 c-10 -9 -11 -8 -5 6 3 10 9 15 12
12 3 -3 0 -11 -7 -18z m-1 -40 c0 -2 -12 -14 -27 -28 l-28 -24 24 28 c23 25
31 32 31 24z m-20 -57 c-6 -11 -15 -20 -20 -20 -6 0 -2 9 7 20 10 11 19 20 21
20 1 0 -2 -9 -8 -20z m7 -36 c-3 -3 -12 -4 -19 -1 -8 3 -5 6 6 6 11 1 17 -2
13 -5z m-8 -33 c-8 -3 -14 -14 -14 -23 0 -10 -4 -18 -10 -18 -9 0 -15 37 -8
52 2 3 13 4 25 0 16 -4 18 -7 7 -11z m-7 -63 c-8 -8 -8 -15 -1 -24 7 -9 5 -16
-11 -24 -20 -11 -21 -10 -10 9 6 12 8 21 4 21 -3 0 -1 7 6 15 7 8 15 15 18 15
3 0 1 -5 -6 -12z m33 -99 c-4 -5 -12 -9 -18 -8 -9 0 -8 2 1 6 6 2 9 10 6 15
-4 7 -2 8 5 4 6 -4 9 -12 6 -17z m62 -135 c-3 -4 -2 -15 4 -25 7 -14 6 -17 -5
-13 -8 3 -13 13 -11 22 5 23 4 22 12 22 3 0 3 -3 0 -6z m54 -51 c12 -16 12
-17 -2 -6 -9 7 -19 10 -22 6 -4 -3 -7 -1 -7 5 0 17 16 15 31 -5z m24 -22 c-3
-6 2 -14 11 -19 15 -8 15 -10 0 -15 -10 -4 -15 -3 -11 2 3 5 0 11 -7 13 -10 4
-4 28 8 28 3 0 3 -4 -1 -9z m334 -82 c-22 -13 -31 -11 -17 5 7 8 17 12 22 9 4
-3 2 -9 -5 -14z m38 -4 c-15 -16 -19 -13 -11 9 3 9 10 13 15 10 5 -3 3 -11 -4
-19z m88 5 c-3 -5 -12 -10 -18 -10 -7 0 -6 4 3 10 19 12 23 12 15 0z m63 -42
c-7 -19 -21 -12 -23 9 -1 18 1 20 12 11 8 -6 12 -15 11 -20z m102 -108 c0 -5
-5 -10 -11 -10 -5 0 -7 5 -4 10 3 6 8 10 11 10 2 0 4 -4 4 -10z m-15 -40 c4
-6 1 -9 -7 -8 -7 2 -12 -2 -11 -9 2 -7 -4 -10 -12 -6 -13 5 -13 7 2 19 22 16
20 16 28 4z m-5 -140 c0 -5 -2 -10 -4 -10 -3 0 -8 5 -11 10 -3 6 -1 10 4 10 6
0 11 -4 11 -10z m-763 -308 c-13 -15 -14 -21 -4 -32 10 -12 9 -12 -6 -1 -16
13 -16 15 -1 32 10 11 19 19 22 19 3 0 -2 -8 -11 -18z m803 -76 c0 -3 -4 -8
-10 -11 -5 -3 -10 -1 -10 4 0 6 5 11 10 11 6 0 10 -2 10 -4z m-57 -18 c4 -10
8 -9 16 2 7 9 11 10 11 3 0 -21 -21 -26 -38 -9 -9 9 -11 16 -5 16 6 0 14 -6
16 -12z m-386 -40 c-3 -8 -6 -5 -6 6 -1 11 2 17 5 13 3 -3 4 -12 1 -19z m160
0 c-3 -8 -6 -5 -6 6 -1 11 2 17 5 13 3 -3 4 -12 1 -19z m50 16 c-3 -3 -12 -4
-19 -1 -8 3 -5 6 6 6 11 1 17 -2 13 -5z m-383 -20 c3 -8 2 -12 -4 -9 -6 3 -10
10 -10 16 0 14 7 11 14 -7z m145 7 c7 -5 9 -11 5 -14 -5 -3 -15 1 -22 9 -14
16 -5 18 17 5z m149 -3 c-2 -6 -12 -12 -22 -14 -14 -2 -15 0 -5 12 14 17 32
19 27 2z"/>
<path d="M146 3522 c-3 -5 1 -9 9 -9 8 0 12 4 9 9 -3 4 -7 8 -9 8 -2 0 -6 -4
-9 -8z"/>
<path d="M1295 3520 c-3 -5 -1 -10 4 -10 6 0 11 5 11 10 0 6 -2 10 -4 10 -3 0
-8 -4 -11 -10z"/>
<path d="M1282 3491 c-11 -7 -11 -9 0 -14 9 -3 15 1 15 9 0 8 -1 14 -1 14 -1
0 -7 -4 -14 -9z"/>
<path d="M55 3441 c-3 -5 -2 -12 3 -15 5 -3 9 1 9 9 0 17 -3 19 -12 6z"/>
<path d="M1220 3440 c-9 -6 -10 -10 -3 -10 6 0 15 5 18 10 8 12 4 12 -15 0z"/>
<path d="M4333 3438 c1 -7 -5 -12 -14 -12 -12 1 -15 -5 -12 -20 3 -15 2 -17
-5 -8 -7 11 -11 10 -20 -1 -9 -11 -7 -13 11 -11 12 1 26 3 30 3 5 1 6 5 3 10
-3 5 1 14 9 21 17 14 20 30 5 30 -5 0 -9 -6 -7 -12z"/>
<path d="M2990 3375 c-7 -9 -10 -18 -6 -22 3 -3 6 -1 6 6 0 7 4 10 8 7 5 -3 9
1 9 9 0 19 -2 19 -17 0z"/>
<path d="M53 3358 c2 -7 1 -20 -4 -29 -4 -8 -3 -22 2 -30 8 -12 10 -12 8 1 -2
25 1 40 9 39 19 -3 23 2 12 16 -15 18 -33 20 -27 3z"/>
<path d="M6 3338 c3 -5 10 -6 15 -3 13 9 11 12 -6 12 -8 0 -12 -4 -9 -9z"/>
<path d="M2987 3298 c2 -24 5 -53 6 -64 0 -12 6 -20 12 -18 15 6 13 38 -4 57
-10 13 -9 17 4 24 14 8 14 11 -3 26 -18 17 -19 16 -15 -25z"/>
<path d="M4213 3298 c-3 -7 -1 -8 5 -4 7 4 12 3 12 -2 0 -6 6 -12 13 -15 8 -3
14 1 14 8 0 17 -35 27 -44 13z"/>
<path d="M5190 3296 c0 -2 7 -9 15 -16 13 -11 14 -10 9 4 -5 14 -24 23 -24 12z"/>
<path d="M16 3253 c-6 -14 -5 -15 5 -6 7 7 10 15 7 18 -3 3 -9 -2 -12 -12z"/>
<path d="M1772 3247 c-8 -10 -6 -13 9 -14 19 -2 26 11 10 21 -5 3 -14 0 -19
-7z"/>
<path d="M2431 3246 c-9 -10 -8 -15 3 -19 11 -4 13 -1 9 11 -6 15 -5 16 13 2
18 -14 18 -14 5 3 -16 21 -16 20 -30 3z"/>
<path d="M4605 3250 c-3 -5 -3 -10 2 -10 4 0 1 -5 -7 -10 -9 -6 -10 -10 -3
-10 6 0 15 5 18 10 4 6 12 7 18 3 7 -4 6 0 -2 10 -16 20 -18 20 -26 7z"/>
<path d="M4758 3249 c-10 -7 -10 -11 0 -21 11 -11 13 -10 10 2 -2 8 2 14 9 15
6 0 14 3 17 6 9 9 -21 7 -36 -2z"/>
<path d="M5135 3240 c-3 -6 1 -7 9 -4 18 7 21 14 7 14 -6 0 -13 -4 -16 -10z"/>
<path d="M4792 3231 c-11 -7 -11 -9 0 -14 9 -3 15 1 15 9 0 8 -1 14 -1 14 -1
0 -7 -4 -14 -9z"/>
<path d="M1716 3213 c-6 -14 -5 -15 5 -6 7 7 10 15 7 18 -3 3 -9 -2 -12 -12z"/>
<path d="M2476 3213 c-6 -14 -5 -15 5 -6 7 7 10 15 7 18 -3 3 -9 -2 -12 -12z"/>
<path d="M2515 3221 c-3 -5 -2 -12 3 -15 5 -3 9 1 9 9 0 17 -3 19 -12 6z"/>
<path d="M2302 3204 c10 -10 20 -16 22 -13 3 3 -5 11 -17 18 -21 13 -21 12 -5
-5z"/>
<path d="M36 3132 c6 -4 14 -16 17 -26 4 -10 10 -16 13 -13 9 8 -15 47 -29 47
-8 0 -9 -3 -1 -8z"/>
<path d="M2575 3089 c-4 -6 -5 -12 -2 -15 2 -3 7 2 10 11 7 17 1 20 -8 4z"/>
<path d="M2989 3068 c-5 -18 -6 -38 -1 -34 7 8 12 36 6 36 -2 0 -4 -1 -5 -2z"/>
<path d="M2590 3028 c0 -4 4 -8 9 -8 6 0 12 4 15 8 3 5 -1 9 -9 9 -8 0 -15 -4
-15 -9z"/>
<path d="M1900 3020 c-9 -6 -10 -10 -3 -10 6 0 15 5 18 10 8 12 4 12 -15 0z"/>
<path d="M2593 3004 c4 -7 0 -15 -9 -18 -13 -5 -14 -9 -4 -21 7 -9 18 -14 23
-12 17 5 16 35 -1 49 -9 8 -13 8 -9 2z m14 -29 c0 -17 -13 -20 -21 -6 -4 5 0
12 6 14 7 3 13 6 14 6 0 1 1 -6 1 -14z"/>
<path d="M1890 2989 c0 -5 5 -9 10 -9 6 0 12 0 15 0 14 0 8 13 -7 16 -10 1
-18 -2 -18 -7z"/>
<path d="M1885 2959 c-4 -6 -5 -12 -2 -15 2 -3 7 2 10 11 7 17 1 20 -8 4z"/>
<path d="M50 2939 c0 -5 -4 -8 -8 -5 -5 3 -9 -1 -9 -9 0 -8 4 -15 9 -15 4 0 8
5 8 11 0 5 4 8 8 5 5 -3 9 1 9 9 0 8 -4 15 -9 15 -4 0 -8 -5 -8 -11z"/>
<path d="M2993 2911 c1 -11 6 -17 14 -14 10 4 11 9 2 19 -15 19 -18 18 -16 -5z"/>
<path d="M4176 2887 c3 -9 10 -17 16 -17 5 0 6 -5 2 -11 -4 -8 0 -8 15 0 11 7
21 14 21 17 0 3 -5 2 -11 -1 -5 -4 -19 1 -30 11 -18 16 -19 16 -13 1z"/>
<path d="M2590 2850 c13 -8 12 -11 -3 -23 -17 -12 -17 -14 -3 -26 19 -16 31
-8 31 22 1 22 -11 37 -30 37 -5 0 -3 -5 5 -10z m17 -35 c0 -17 -13 -20 -21 -6
-4 5 0 12 6 14 7 3 13 6 14 6 0 1 1 -6 1 -14z"/>
<path d="M1867 2819 c7 -7 15 -10 18 -7 3 3 -2 9 -12 12 -14 6 -15 5 -6 -5z"/>
<path d="M2989 2748 c-5 -18 -6 -38 -1 -34 7 8 12 36 6 36 -2 0 -4 -1 -5 -2z"/>
<path d="M1203 2718 c1 -7 -3 -12 -10 -13 -6 0 -15 -4 -20 -9 -5 -5 -3 -6 5
-2 6 4 12 2 12 -3 0 -6 8 -3 18 7 19 17 19 32 1 32 -5 0 -8 -5 -6 -12z"/>
<path d="M1900 2690 c-8 -5 -10 -10 -5 -10 6 0 11 -9 12 -20 1 -11 -2 -18 -8
-15 -14 9 -11 -1 4 -13 11 -9 13 -3 13 28 0 22 0 40 -1 40 0 0 -7 -5 -15 -10z"/>
<path d="M4276 2673 c-6 -14 -5 -15 5 -6 7 7 10 15 7 18 -3 3 -9 -2 -12 -12z"/>
<path d="M1200 2657 c11 -15 11 -20 1 -27 -8 -4 -9 -10 -3 -14 18 -11 23 27 5
43 -16 15 -16 15 -3 -2z"/>
<path d="M2580 2655 c8 -11 15 -21 16 -23 1 -1 7 5 15 15 10 12 10 15 1 9 -7
-4 -20 -2 -30 6 -16 12 -16 11 -2 -7z"/>
<path d="M46 2635 c9 -14 19 -24 21 -21 6 6 -20 46 -30 46 -4 0 0 -11 9 -25z"/>
<path d="M4345 2640 c-3 -6 1 -7 9 -4 18 7 21 14 7 14 -6 0 -13 -4 -16 -10z"/>
<path d="M921 2626 c-8 -10 -8 -16 2 -24 10 -9 13 -6 13 13 0 29 0 29 -15 11z"/>
<path d="M950 2622 c0 -5 7 -9 15 -9 8 0 12 4 9 9 -3 4 -9 8 -15 8 -5 0 -9 -4
-9 -8z"/>
<path d="M2993 2591 c1 -11 6 -17 14 -14 10 4 11 9 2 19 -15 19 -18 18 -16 -5z"/>
<path d="M1203 2593 c-7 -3 -13 -9 -13 -14 0 -6 4 -8 9 -5 5 4 11 1 13 -5 2
-7 8 -6 16 4 10 12 10 16 0 19 -7 3 -19 3 -25 1z"/>
<path d="M4420 2592 c0 -6 -8 -9 -17 -6 -15 5 -16 4 -3 -5 16 -11 40 3 27 16
-4 3 -7 1 -7 -5z"/>
<path d="M15 2580 c3 -5 8 -10 11 -10 2 0 4 5 4 10 0 6 -5 10 -11 10 -5 0 -7
-4 -4 -10z"/>
<path d="M2575 2569 c-4 -6 -5 -12 -2 -15 2 -3 7 2 10 11 7 17 1 20 -8 4z"/>
<path d="M4550 2566 c7 -7 13 -7 20 0 6 6 3 10 -10 10 -13 0 -16 -4 -10 -10z"/>
<path d="M770 2560 c0 -5 9 -8 20 -7 21 1 18 10 -5 13 -8 1 -15 -2 -15 -6z"/>
<path d="M860 2566 c0 -2 7 -6 15 -10 8 -3 15 -1 15 4 0 6 -7 10 -15 10 -8 0
-15 -2 -15 -4z"/>
<path d="M618 2543 c-7 -9 -7 -13 1 -13 6 0 11 4 11 9 0 5 11 8 25 7 13 -2 22
0 20 5 -8 12 -45 6 -57 -8z"/>
<path d="M4570 2540 c0 -5 5 -10 11 -10 5 0 7 5 4 10 -3 6 -8 10 -11 10 -2 0
-4 -4 -4 -10z"/>
<path d="M790 2536 c0 -2 8 -10 18 -17 15 -13 16 -12 3 4 -13 16 -21 21 -21
13z"/>
<path d="M4610 2537 c0 -2 6 -10 14 -16 11 -9 16 -9 22 1 4 7 4 10 -1 6 -4 -4
-14 -3 -22 3 -7 6 -13 9 -13 6z"/>
<path d="M4735 2531 c-3 -5 -2 -12 3 -15 5 -3 9 1 9 9 0 17 -3 19 -12 6z"/>
<path d="M33 2505 c0 -8 4 -15 9 -15 4 0 8 4 8 9 0 6 -4 12 -8 15 -5 3 -9 -1
-9 -9z"/>
<path d="M2570 2499 c0 -5 5 -7 10 -4 6 3 10 8 10 11 0 2 -4 4 -10 4 -5 0 -10
-5 -10 -11z"/>
<path d="M4860 2505 c0 -2 6 -8 13 -14 10 -8 14 -7 14 2 0 8 -6 14 -14 14 -7
0 -13 -1 -13 -2z"/>
<path d="M1885 2479 c-4 -6 -5 -12 -2 -15 2 -3 7 2 10 11 7 17 1 20 -8 4z"/>
<path d="M2573 2449 c-2 -23 3 -25 10 -4 4 8 3 16 -1 19 -4 3 -9 -4 -9 -15z"/>
<path d="M33 2445 c0 -8 4 -15 9 -15 4 0 8 4 8 9 0 6 -4 12 -8 15 -5 3 -9 -1
-9 -9z"/>
<path d="M1195 2450 c-3 -5 -3 -10 2 -10 4 0 1 -5 -7 -10 -11 -7 -11 -10 -2
-10 7 0 10 -5 6 -12 -5 -7 -3 -8 6 -3 8 5 11 3 8 -6 -3 -8 -10 -14 -15 -14 -6
0 -15 -4 -20 -9 -4 -5 -3 -7 2 -3 6 3 17 1 25 -4 13 -8 13 -10 0 -19 -10 -6
-11 -10 -2 -10 6 0 12 -5 12 -11 0 -5 -4 -7 -10 -4 -5 3 -10 1 -10 -4 0 -15
17 -14 27 2 11 17 11 57 0 50 -5 -3 -6 4 -3 15 4 11 2 23 -4 27 -8 5 -8 10 0
20 7 8 7 15 1 19 -5 4 -12 2 -16 -4z"/>
<path d="M2989 2428 c-5 -18 -6 -38 -1 -34 7 8 12 36 6 36 -2 0 -4 -1 -5 -2z"/>
<path d="M2590 2388 c0 -4 4 -8 9 -8 6 0 12 4 15 8 3 5 -1 9 -9 9 -8 0 -15 -4
-15 -9z"/>
<path d="M1877 2353 c3 -7 6 -13 8 -13 2 0 5 6 8 13 3 8 -1 14 -8 14 -7 0 -11
-6 -8 -14z"/>
<path d="M2593 2364 c4 -7 0 -15 -9 -18 -13 -5 -14 -9 -4 -21 7 -9 18 -14 23
-12 17 5 16 35 -1 49 -9 8 -13 8 -9 2z m14 -29 c0 -17 -13 -20 -21 -6 -4 5 0
12 6 14 7 3 13 6 14 6 0 1 1 -6 1 -14z"/>
<path d="M1866 2238 c3 -5 10 -6 15 -3 13 9 11 12 -6 12 -8 0 -12 -4 -9 -9z"/>
<path d="M4966 2209 c3 -5 -2 -9 -10 -9 -8 0 -17 -4 -20 -9 -4 -5 4 -7 16 -4
19 4 20 3 8 -6 -8 -6 -10 -11 -4 -11 10 0 52 39 43 41 -2 0 -12 2 -22 4 -9 2
-15 -1 -11 -6z"/>
<path d="M1197 2195 c-8 -8 -18 -11 -22 -7 -5 4 -5 1 -1 -6 6 -11 12 -10 27 4
10 9 19 19 19 21 0 7 -9 2 -23 -12z"/>
<path d="M2580 2175 c8 -11 15 -21 16 -23 1 -1 7 5 15 15 10 12 10 15 1 9 -7
-4 -20 -2 -30 6 -16 12 -16 11 -2 -7z"/>
<path d="M52 2146 c13 -19 24 -33 26 -31 6 6 -31 65 -40 65 -5 0 2 -15 14 -34z"/>
<path d="M1202 2168 c-8 -8 -8 -17 -1 -30 12 -23 30 -14 26 12 -4 27 -11 32
-25 18z m15 -20 c2 -17 0 -19 -7 -8 -5 8 -6 18 -4 22 8 12 10 10 11 -14z"/>
<path d="M15 2100 c3 -5 8 -10 11 -10 2 0 4 5 4 10 0 6 -5 10 -11 10 -5 0 -7
-4 -4 -10z"/>
<path d="M2575 2089 c-4 -6 -5 -12 -2 -15 2 -3 7 2 10 11 7 17 1 20 -8 4z"/>
<path d="M1866 2078 c3 -5 10 -6 15 -3 13 9 11 12 -6 12 -8 0 -12 -4 -9 -9z"/>
<path d="M4230 2056 c0 -2 7 -9 15 -16 13 -11 14 -10 9 4 -5 14 -24 23 -24 12z"/>
<path d="M1175 2020 c3 -5 8 -10 11 -10 2 0 4 5 4 10 0 6 -5 10 -11 10 -5 0
-7 -4 -4 -10z"/>
<path d="M2570 2019 c0 -5 5 -7 10 -4 6 3 10 8 10 11 0 2 -4 4 -10 4 -5 0 -10
-5 -10 -11z"/>
<path d="M1905 1921 c-3 -5 1 -16 9 -24 11 -11 12 -17 3 -26 -9 -9 -8 -11 5
-6 13 5 16 2 12 -17 -4 -21 -3 -21 5 -3 9 20 0 48 -19 60 -6 4 -8 11 -5 16 4
5 4 9 1 9 -3 0 -7 -4 -11 -9z"/>
<path d="M3994 1916 c-10 -8 -17 -16 -14 -19 3 -2 14 4 24 14 23 22 18 25 -10
5z"/>
<path d="M5138 1910 c-14 -10 -28 -16 -32 -12 -4 3 -4 -1 -1 -10 5 -13 10 -12
31 9 13 13 29 21 36 17 7 -4 8 -3 4 4 -9 15 -9 15 -38 -8z"/>
<path d="M1870 1906 c0 -2 7 -7 16 -10 8 -3 12 -2 9 4 -6 10 -25 14 -25 6z"/>
<path d="M2970 1900 c0 -5 5 -10 11 -10 5 0 7 5 4 10 -3 6 -8 10 -11 10 -2 0
-4 -4 -4 -10z"/>
<path d="M4175 1900 c3 -5 8 -10 11 -10 2 0 4 5 4 10 0 6 -5 10 -11 10 -5 0
-7 -4 -4 -10z"/>
<path d="M5135 1879 c-4 -6 -5 -12 -2 -15 2 -3 7 2 10 11 7 17 1 20 -8 4z"/>
<path d="M350 1860 c0 -5 5 -10 11 -10 5 0 7 5 4 10 -3 6 -8 10 -11 10 -2 0
-4 -4 -4 -10z"/>
<path d="M1195 1860 c-3 -5 -1 -10 4 -10 6 0 11 5 11 10 0 6 -2 10 -4 10 -3 0
-8 -4 -11 -10z"/>
<path d="M2620 1860 c-11 -7 -11 -10 -2 -10 8 0 10 -5 6 -12 -5 -9 -3 -9 9 1
9 7 14 17 11 22 -6 11 -6 11 -24 -1z"/>
<path d="M1475 1850 c-4 -6 -10 -8 -15 -5 -5 3 -11 1 -14 -4 -6 -9 34 -24 43
-16 2 3 -1 5 -9 5 -10 0 -10 3 0 15 7 8 10 15 7 15 -3 0 -9 -5 -12 -10z"/>
<path d="M3866 1833 c-6 -14 -5 -15 5 -6 7 7 10 15 7 18 -3 3 -9 -2 -12 -12z"/>
<path d="M3910 1829 c0 -5 5 -7 10 -4 6 3 10 8 10 11 0 2 -4 4 -10 4 -5 0 -10
-5 -10 -11z"/>
<path d="M1210 1826 c0 -2 7 -7 16 -10 8 -3 12 -2 9 4 -6 10 -25 14 -25 6z"/>
<path d="M2105 1811 c-6 -11 13 -26 22 -17 4 3 1 6 -6 6 -7 0 -9 5 -6 10 3 6
4 10 1 10 -3 0 -7 -4 -11 -9z"/>
<path d="M5055 1809 c-4 -6 -5 -12 -2 -15 2 -3 7 2 10 11 7 17 1 20 -8 4z"/>
<path d="M2747 1790 c-3 -11 -3 -20 -1 -20 2 0 8 9 14 20 6 11 7 20 2 20 -6 0
-12 -9 -15 -20z"/>
<path d="M2856 1793 c-6 -14 -5 -15 5 -6 7 7 10 15 7 18 -3 3 -9 -2 -12 -12z"/>
<path d="M3850 1799 c0 -5 5 -7 10 -4 6 3 10 8 10 11 0 2 -4 4 -10 4 -5 0 -10
-5 -10 -11z"/>
<path d="M3484 1788 c-3 -4 -4 -8 -2 -9 19 -4 50 -6 40 -3 -6 3 -10 9 -8 13 3
4 -2 8 -10 8 -8 0 -17 -4 -20 -9z"/>
<path d="M3576 1793 c-3 -4 -6 -11 -6 -17 0 -6 5 -4 10 4 6 10 10 11 10 3 0
-7 5 -13 10 -13 6 0 10 4 10 9 0 11 -26 22 -34 14z"/>
<path d="M176 1782 c-3 -5 1 -9 9 -9 8 0 12 4 9 9 -3 4 -7 8 -9 8 -2 0 -6 -4
-9 -8z"/>
<path d="M2070 1780 c0 -5 7 -7 15 -4 8 4 15 8 15 10 0 2 -7 4 -15 4 -8 0 -15
-4 -15 -10z"/>
<path d="M3380 1780 c0 -5 5 -10 11 -10 5 0 7 5 4 10 -3 6 -8 10 -11 10 -2 0
-4 -4 -4 -10z"/>
<path d="M276 1767 c3 -10 9 -15 12 -12 3 3 0 11 -7 18 -10 9 -11 8 -5 -6z"/>
<path d="M4605 1770 c-16 -7 -17 -9 -3 -9 9 -1 20 4 23 9 7 11 7 11 -20 0z"/>
<path d="M150 1760 c0 -5 5 -10 11 -10 5 0 7 5 4 10 -3 6 -8 10 -11 10 -2 0
-4 -4 -4 -10z"/>
<path d="M1335 1760 c-3 -5 -1 -10 4 -10 6 0 11 5 11 10 0 6 -2 10 -4 10 -3 0
-8 -4 -11 -10z"/>
</g>
</svg>
